<svg data-name="Group 28785" xmlns="http://www.w3.org/2000/svg" width="47.727" height="47.727" viewBox="0 0 47.727 47.727">
    <defs>
        <clipPath id="612h00fhxa">
            <path data-name="Rectangle 4879" style="fill:none" d="M0 0h47.727v47.727H0z"/>
        </clipPath>
    </defs>
    <g data-name="Group 28091" style="clip-path:url(#612h00fhxa)">
        <path data-name="Path 14838" d="M40.3 47.727H7.212c-.037-.055-.066-.148-.113-.158a8.543 8.543 0 0 1-6.941-6.942c-.011-.047-.1-.076-.158-.113V7.212c.225-.061.182-.259.224-.421A8.513 8.513 0 0 1 6.9.211c.138-.033.268-.048.312-.211H40.3c.274.408.834.418 1.159.49 3.113.689 4.8 2.786 5.85 5.587.142.377.076.831.415 1.135v33.3c-.275.084-.19.333-.242.523a8.636 8.636 0 0 1-6.135 6.378c-.347.107-.8-.1-1.047.311m4.335-25.343c-1.122-.627-2.091-1.127-3.015-1.7a1.671 1.671 0 0 0-1.585-.116 88.8 88.8 0 0 0-9.835 4.079 83.854 83.854 0 0 0-11.271 6.637c1.46.982 2.88 1.9 4.253 2.881a.8.8 0 0 0 1.166-.018 78.217 78.217 0 0 1 6.568-4.622 90.913 90.913 0 0 1 13.722-7.139m-32.025 5.468c1.358.725 2.616 1.359 3.834 2.064a1.127 1.127 0 0 0 1.4-.024A73.947 73.947 0 0 1 32.1 22.327c2.414-.96 4.886-1.774 7.463-2.7-1.187-.546-2.272-1.03-3.342-1.543a2.153 2.153 0 0 0-1.618-.1 78.966 78.966 0 0 0-7.92 2.611 76.05 76.05 0 0 0-14.069 7.261m-3.73-3.506c1.117.762 2.427.962 3.335 1.871.118.118.216-.017.334-.1a35.832 35.832 0 0 1 5.426-2.993c1.658-.81 3.356-1.539 5.209-2.382-1.172-.5-2.185-.937-3.21-1.351a.909.909 0 0 0-.608-.029 73.934 73.934 0 0 0-10.487 4.979m-5-1.9c1.125.427 2.08.764 3.013 1.157a.8.8 0 0 0 .784-.087 79.469 79.469 0 0 1 10.31-4.834c-1.144-.244-2.108-1.224-3.366-.83a58.951 58.951 0 0 0-10.738 4.595m23.736-3.264c-.033-.28-.289-.277-.468-.363a61.453 61.453 0 0 0-7.254-2.885 5.324 5.324 0 0 0-4.874.646 42.634 42.634 0 0 1 6.874 2.51 5.62 5.62 0 0 0 5.659.149.305.305 0 0 0 .062-.057m5.162-1.568c-2.752-1.165-5.324-1.987-7.87-2.889a6.869 6.869 0 0 0-4.756.206c.394.617 1.048.408 1.558.583 2.393.826 4.774 1.679 7.078 2.733a1.462 1.462 0 0 0 1.105.2c.863-.268 1.736-.5 2.885-.833" style="fill:#db1431"/>
        <path data-name="Path 14839" d="M114.888 98.191a90.892 90.892 0 0 0-13.722 7.139 78.1 78.1 0 0 0-6.568 4.622.8.8 0 0 1-1.166.018c-1.373-.982-2.792-1.9-4.253-2.881a83.87 83.87 0 0 1 11.271-6.637 88.8 88.8 0 0 1 9.838-4.076 1.673 1.673 0 0 1 1.585.116c.924.572 1.893 1.072 3.015 1.7" transform="translate(-70.251 -75.807)" style="fill:#fefbfb"/>
        <path data-name="Path 14840" d="M59.425 94.179a76.063 76.063 0 0 1 14.069-7.261 78.978 78.978 0 0 1 7.92-2.611 2.153 2.153 0 0 1 1.618.1c1.071.513 2.156 1 3.342 1.544-2.577.927-5.049 1.741-7.463 2.7a73.94 73.94 0 0 0-14.255 7.565 1.127 1.127 0 0 1-1.4.024c-1.218-.7-2.476-1.339-3.834-2.064" transform="translate(-46.812 -66.328)" style="fill:#fdfbfb"/>
        <path data-name="Path 14841" d="M41.853 96.051a73.957 73.957 0 0 1 10.486-4.986.909.909 0 0 1 .608.03c1.025.413 2.039.854 3.21 1.351-1.852.843-3.55 1.572-5.209 2.382a35.834 35.834 0 0 0-5.426 2.993c-.118.085-.216.22-.334.1-.908-.909-2.218-1.11-3.335-1.872" transform="translate(-32.97 -71.706)" style="fill:#fdf9fa"/>
        <path data-name="Path 14842" d="M18.308 88.36a58.945 58.945 0 0 1 10.741-4.594c1.258-.394 2.222.586 3.366.83a79.468 79.468 0 0 0-10.31 4.834.8.8 0 0 1-.784.087c-.932-.392-1.888-.73-3.013-1.157" transform="translate(-14.422 -65.915)" style="fill:#fdf9f9"/>
        <path data-name="Path 14843" d="M83.38 77.122a.3.3 0 0 1-.062.057 5.62 5.62 0 0 1-5.659-.149 42.65 42.65 0 0 0-6.877-2.51 5.324 5.324 0 0 1 4.874-.646 61.441 61.441 0 0 1 7.257 2.884c.179.086.435.083.468.363" transform="translate(-55.758 -57.941)" style="fill:#fdf7f8"/>
        <path data-name="Path 14844" d="M107.6 71c-1.149.329-2.022.564-2.885.833a1.463 1.463 0 0 1-1.105-.2c-2.3-1.054-4.685-1.907-7.078-2.733-.51-.176-1.163.034-1.558-.583a6.869 6.869 0 0 1 4.756-.206c2.546.9 5.119 1.725 7.87 2.889" transform="translate(-74.814 -53.392)" style="fill:#fdf6f7"/>
    </g>
</svg>
