<svg data-name="Group 27915" xmlns="http://www.w3.org/2000/svg" width="23" height="23" viewBox="0 0 23 23">
    <path data-name="Path 2437" d="m250.441-538.868-2.69-2.019a1.114 1.114 0 0 0-.671-.224 1.119 1.119 0 0 0-.9.448 1.12 1.12 0 0 0 .224 1.569l4.484 3.363a1.121 1.121 0 0 0 1.317.02l4.484-3.154a1.12 1.12 0 0 0 .272-1.561 1.121 1.121 0 0 0-1.561-.272l-2.721 1.916v-6.503a1.121 1.121 0 0 0-1.121-1.121 1.121 1.121 0 0 0-1.121 1.121z" transform="translate(-239.958 552.507)" style="fill:#171717"/>
    <g data-name="Ellipse 277" style="stroke:#171717;stroke-width:2.5px;fill:none">
        <circle cx="11.5" cy="11.5" r="11.5" style="stroke:none"/>
        <circle cx="11.5" cy="11.5" r="10.25" style="fill:none"/>
    </g>
</svg>
