<svg xmlns="http://www.w3.org/2000/svg" width="36.133" height="47.726" viewBox="0 0 36.133 47.726">
    <path data-name="Path 14892" d="m25.693 40.077 4.865 3.3v2.362h-4.865zm0-2.371v-3.9l4.865 3.3v3.9zM12 33.309l7.078 4.816.1-.145v7.762H12zm13.7-1.872v-3.9l4.865 3.3v3.9zM12 30.931v-3.892l7.078 4.816.1-.145v4.1zm13.7-5.764v-3.9l4.865 3.3v3.9zM12 24.661v-3.892l7.078 4.816.1-.145v4.1zm13.7-5.764v-3.508l4.865 3.121v3.69zm-4.38-3.14 2.41-.587v30.572h-2.41zM12 18.392V14.5l7.078 4.816.1-.145v4.1zm0-6.27V8.23l7.078 4.816.1-.145V17zm0-6.27V2.739l7.177 4.6v3.392zm-6.424-2.42 4.451-1.085v43.4H5.576zM11.368 0 3.606 1.891v43.851H0v1.984h36.133v-1.984h-3.606V17.437l-7.267-4.662-4.116 1V6.271z" style="fill:#641856"/>
</svg>
