<svg xmlns="http://www.w3.org/2000/svg" width="21.429" height="21.3" viewBox="0 0 21.429 21.3">
    <path data-name="Path 13709" d="M19.36 3.917 15.868.425a1.454 1.454 0 0 0-2.053 0L1.986 12.139a1.5 1.5 0 0 0-.386.661L.041 18.335a1.048 1.048 0 0 0 1 1.331 1.067 1.067 0 0 0 .285-.039l5.558-1.544a1.5 1.5 0 0 0 .655-.38l9.225-9.155a.364.364 0 0 0 .14-.139l2.456-2.437a1.454 1.454 0 0 0 0-2.054M6.972 17.131a.7.7 0 0 1-.3.176l-5.56 1.544a.241.241 0 0 1-.3-.3l1.557-5.537a.693.693 0 0 1 .18-.3l9.016-8.93 4.415 4.408zM18.792 5.4l-2.24 2.223-4.41-4.41L14.381 1a.648.648 0 0 1 .915 0l3.494 3.487a.647.647 0 0 1 0 .914" transform="translate(.76 .884)" style="fill:#a0a0a0;stroke:#a0a0a0;stroke-width:1.5px"/>
</svg>
