<svg data-name="Group 27676" xmlns="http://www.w3.org/2000/svg" width="40.002" height="30" viewBox="0 0 40.002 30">
    <defs>
        <clipPath id="qshf3uue2a">
            <path data-name="Rectangle 4754" style="fill:none" d="M0 0h40.002v30H0z"/>
        </clipPath>
    </defs>
    <g data-name="Group 27675" style="clip-path:url(#qshf3uue2a)">
        <path data-name="Path 13490" d="M592.9 171.206c.006-.086.018-.172.018-.258v-14.939c0-.078-.005-.156-.008-.234l-.005-.017.084-.063c.049-.035.1-.069.148-.105l8.638-6.475c.075-.056.136-.137.239-.147v20.156c-.1-.036-.089.05-.1.1a2.711 2.711 0 0 1-1.881 1.881c-.049.015-.134.005-.1.1z" transform="translate(-562.011 -141.206)" style="fill:#34a752"/>
        <path data-name="Path 13491" d="M9.1 155.767c0 .1-.007.191-.007.286v14.843c0 .1.013.206.021.309H2.083a.217.217 0 0 0 .02-.016.122.122 0 0 0 .013-.017.472.472 0 0 0-.1-.066A2.7 2.7 0 0 1 .1 169.2c-.013-.044-.008-.127-.1-.073v-20.161c.065.04.135.076.2.121l4.6 3.45q2.1 1.574 4.211 3.144l.105.084H9.1" transform="translate(0 -141.206)" style="fill:#4284f2"/>
        <path data-name="Path 13492" d="M4.948 0c-.031.113.065.095.119.108a4.606 4.606 0 0 1 1.675.854c.7.535 1.411 1.06 2.116 1.59.089.067.17.144.255.217a.079.079 0 0 1 0 .037.585.585 0 0 0-.052.378v10.941c0 .118.034.244-.053.35L4.8 11.332Q2.5 9.609.2 7.882C.135 7.836.066 7.8 0 7.76V3.281c.111.021.089-.073.1-.127A4.06 4.06 0 0 1 3.154.105C3.208.09 3.3.11 3.281 0z" style="fill:#c4221f"/>
        <path data-name="Path 13493" d="M593.8 2.717c.9-.676 1.8-1.358 2.706-2.025a3.8 3.8 0 0 1 1.4-.608.089.089 0 0 0 .039-.03c.03-.033-.01-.038-.024-.054h1.615c.08.085.08.084.15.1a4.034 4.034 0 0 1 3.09 3.109c.012.047-.026.151.094.122V7.76c-.1.011-.164.092-.239.147q-4.32 3.236-8.638 6.475c-.049.036-.1.07-.148.105a.665.665 0 0 1-.036-.356V2.716" transform="translate(-562.866)" style="fill:#fabb04"/>
        <path data-name="Path 13494" d="M174.708 53.08a.078.078 0 0 0 0-.037 11.76 11.76 0 0 1 1.049.762q4.813 3.6 9.619 7.218a.3.3 0 0 0 .44 0q5.209-3.921 10.428-7.828c.076-.057.156-.107.235-.161v3.019q0 4.385.005 8.77l.005.018-4.168 3.114q-3.259 2.441-6.511 4.891a.3.3 0 0 1-.44-.007q-5.218-3.924-10.445-7.839c-.076-.057-.155-.11-.233-.165h.013V53.081" transform="translate(-165.591 -50.274)" style="fill:#e94335"/>
        <path data-name="Path 13495" d="M592.847 63.984q0-4.385-.005-8.77v-3.019l.052-.046v11.415a.664.664 0 0 0 .036.357l-.084.063" transform="translate(-561.954 -49.432)" style="fill:#b45619"/>
        <path data-name="Path 13496" d="M173.03 53.871v11.754l-.105-.084c.088-.106.053-.233.053-.35V54.25a.585.585 0 0 1 .052-.378" transform="translate(-163.914 -51.065)" style="fill:#9a211c"/>
    </g>
</svg>
