<svg id="Group_27932" data-name="Group 27932" xmlns="http://www.w3.org/2000/svg" xmlns:xlink="http://www.w3.org/1999/xlink" width="39.312" height="39.354" viewBox="0 0 39.312 39.354">
  <defs>
    <style>
      .cls-1 {
        fill: none;
      }

      .cls-2 {
        clip-path: url(#clip-path);
      }
    </style>
    <clipPath id="clip-path">
      <rect id="Rectangle_4794" data-name="Rectangle 4794" class="cls-1" width="39.312" height="39.353"/>
    </clipPath>
  </defs>
  <g id="Group_27921" data-name="Group 27921" class="cls-2">
    <path id="Path_13575" data-name="Path 13575" d="M43.443,37.854l-.5-4.258a7.347,7.347,0,0,0-3.886-5.663,7.061,7.061,0,1,0-12.525-4.464,7.223,7.223,0,0,0,1.612,4.506A7.548,7.548,0,0,0,24.262,33.6l-.5,4.258a3.325,3.325,0,0,0,2.6,3.638,37.585,37.585,0,0,0,14.468,0,3.325,3.325,0,0,0,2.6-3.638M33.6,19.872a3.6,3.6,0,1,1-3.6,3.6,3.6,3.6,0,0,1,3.6-3.6M27.2,38.144l.5-4.134a3.938,3.938,0,0,1,3.927-3.472h3.968a3.969,3.969,0,0,1,3.927,3.472l.5,4.134a35.141,35.141,0,0,1-12.815,0" transform="translate(-13.928 -9.621)"/>
    <path id="Path_13576" data-name="Path 13576" d="M1.836,13.724a1.747,1.747,0,0,0,1.736-1.736V3.472h8.516a1.747,1.747,0,0,0,1.736-1.736A1.747,1.747,0,0,0,12.088,0H1.836A1.747,1.747,0,0,0,.1,1.736V11.988a1.72,1.72,0,0,0,1.736,1.736" transform="translate(-0.059)"/>
    <path id="Path_13577" data-name="Path 13577" d="M73.888,62a1.747,1.747,0,0,0-1.736,1.736v8.516H63.636a1.736,1.736,0,1,0,0,3.472H73.888a1.747,1.747,0,0,0,1.736-1.736V63.695A1.712,1.712,0,0,0,73.888,62" transform="translate(-36.312 -36.371)"/>
    <path id="Path_13578" data-name="Path 13578" d="M73.888.1H63.636A1.747,1.747,0,0,0,61.9,1.836a1.747,1.747,0,0,0,1.736,1.736h8.516v8.516a1.736,1.736,0,0,0,3.472,0V1.836A1.747,1.747,0,0,0,73.888.1" transform="translate(-36.312 -0.059)"/>
    <path id="Path_13579" data-name="Path 13579" d="M12.029,72.193H3.472V63.636A1.747,1.747,0,0,0,1.736,61.9,1.747,1.747,0,0,0,0,63.636V73.888a1.747,1.747,0,0,0,1.736,1.736H11.988a1.747,1.747,0,0,0,1.736-1.736,1.676,1.676,0,0,0-1.695-1.695" transform="translate(0 -36.312)"/>
  </g>
</svg>
