<svg xmlns="http://www.w3.org/2000/svg" width="40.812" height="42.5" viewBox="0 0 40.812 42.5">
  <defs>
    <style>
      .cls-1 {
        fill: #171717;
        stroke: #171717;
        stroke-width: 1.5px;
      }
    </style>
  </defs>
  <path id="Path_13574" data-name="Path 13574" class="cls-1" d="M39.312,3.859A3.859,3.859,0,0,0,35.453,0H3.859A3.859,3.859,0,0,0,0,3.859V5.668A3.859,3.859,0,0,0,2.412,9.242V25.926A5.788,5.788,0,0,0,8.2,31.715H18.691v7.356H15.2A.965.965,0,0,0,15.2,41h8.9a.965.965,0,1,0,0-1.929H20.621V31.715H31.112A5.788,5.788,0,0,0,36.9,25.926V9.242a3.859,3.859,0,0,0,2.412-3.574Zm-8.2,25.926H8.2a3.859,3.859,0,0,1-3.859-3.859V9.526H34.971v16.4a3.859,3.859,0,0,1-3.859,3.859M37.382,5.668A1.929,1.929,0,0,1,35.453,7.6H3.859A1.929,1.929,0,0,1,1.929,5.668V3.859A1.929,1.929,0,0,1,3.859,1.929H35.453a1.929,1.929,0,0,1,1.929,1.929Z" transform="translate(0.75 0.75)"/>
</svg>
