<svg xmlns="http://www.w3.org/2000/svg" width="27" height="27" viewBox="0 0 27 27">
    <defs>
        <clipPath id="clip-path">
            <path id="Path_2369" d="M62.335-407.011l-1.284 1.241a.893.893 0 0 1-.621.251.89.89 0 0 1-.642-.273.892.892 0 0 1 .022-1.262l1.284-1.241a.893.893 0 0 1 1.262.021.892.892 0 0 1-.021 1.262m-10.256 1.219a.89.89 0 0 1-.642.273.892.892 0 0 1-.621-.25l-1.285-1.241a.893.893 0 0 1-.021-1.263.893.893 0 0 1 1.263-.022l1.285 1.241a.893.893 0 0 1 .021 1.263m-1.5 3.723a.893.893 0 0 1-.893.893H47.9a.893.893 0 0 1-.893-.893.893.893 0 0 1 .893-.893h1.786a.893.893 0 0 1 .893.893m14.29 0a.892.892 0 0 1-.893.893h-1.791a.892.892 0 0 1-.893-.893.892.892 0 0 1 .893-.893h1.786a.892.892 0 0 1 .893.893m-9.824-6.252v-1.786a.893.893 0 0 1 .893-.893.893.893 0 0 1 .893.893v1.786a.893.893 0 0 1-.893.893.893.893 0 0 1-.893-.893m2.234 8.568a.9.9 0 0 0-.447.774v4.055H55.04v-4.055a.9.9 0 0 0-.447-.774 2.676 2.676 0 0 1-1.339-2.316 2.683 2.683 0 0 1 2.679-2.679 2.683 2.683 0 0 1 2.679 2.679 2.676 2.676 0 0 1-1.339 2.316m-1.341-6.781a4.471 4.471 0 0 0-4.466 4.466 4.469 4.469 0 0 0 1.786 3.569v3.576a1.788 1.788 0 0 0 1.786 1.786h1.786a1.788 1.788 0 0 0 1.786-1.786v-3.577a4.472 4.472 0 0 0 1.786-3.569 4.471 4.471 0 0 0-4.466-4.466" class="cls-1" transform="translate(-47.002 411)"/>
        </clipPath>
        <style>
            .cls-1{fill:#e3ac04}
        </style>
    </defs>
    <g id="Group_5280" transform="translate(.381)">
        <circle id="Ellipse_43" cx="13.5" cy="13.5" r="13.5" fill="rgba(244,183,0,0.27)" transform="translate(-.381)"/>
        <g id="Group_3588" clip-path="url(#clip-path)" transform="translate(4.608 4.997)">
            <path id="Path_2368" d="M42-416h26.8v26.793H42z" class="cls-1" transform="translate(-46.468 411.535)"/>
        </g>
    </g>
</svg>
