<svg xmlns="http://www.w3.org/2000/svg" width="46.926" height="46.976" viewBox="0 0 46.926 46.976">
    <g data-name="Group 1471">
        <g data-name="Group 1273">
            <path data-name="Path 978" d="M781.472 329.027a4.468 4.468 0 1 0-5.319-.054" transform="translate(-755.182 -319.467)" style="stroke-miterlimit:10;fill:none;stroke:#000;stroke-linecap:round;stroke-width:3px"/>
            <path data-name="Path 979" d="M789.439 326.035a17.491 17.491 0 0 0-2.071-.435 4.4 4.4 0 0 1-5.319-.054 18.031 18.031 0 0 0-14.86 22.776c1.3 2.216 2.084 3.583 3.048 5.1h28.608c1-1.532 1.909-3.048 3.048-5.1a18.053 18.053 0 0 0-12.454-22.287z" transform="translate(-761.078 -316.04)" style="stroke-linejoin:round;fill:none;stroke:#000;stroke-linecap:round;stroke-width:3px"/>
        </g>
        <path data-name="Line 5" transform="translate(14.041 45.044)" style="stroke-miterlimit:10;fill:none;stroke:#000;stroke-linecap:round;stroke-width:3px" d="M0 0h18.843"/>
        <path data-name="Line 6" transform="translate(1.5 31.408)" style="stroke-miterlimit:10;fill:none;stroke:#000;stroke-linecap:round;stroke-width:3px" d="M0 0h43.926"/>
        <g data-name="Group 1271">
            <path data-name="Line 7" style="stroke-miterlimit:10;fill:none;stroke:#000;stroke-linecap:round;stroke-width:3px" d="M2.882 0 0 7.657" transform="translate(17.393 37.386)"/>
            <path data-name="Line 8" transform="translate(26.649 37.386)" style="stroke-miterlimit:10;fill:none;stroke:#000;stroke-linecap:round;stroke-width:3px" d="M2.882 7.657 0 0"/>
        </g>
    </g>
</svg>
