<svg xmlns="http://www.w3.org/2000/svg" width="16.053" height="16.053" viewBox="0 0 16.053 16.053">
    <circle cx="8.026" cy="8.026" r="8.026" fill="#2bd0d9"/>
    <path fill="#fff" d="M-1021.13 1607.3a3.669 3.669 0 0 0 .488 2.111 1.967 1.967 0 0 0 2.4.895 3.5 3.5 0 0 0 1.995-1.489c.065-.1.13-.209.2-.311a.393.393 0 0 1 .43-.163.381.381 0 0 1 .289.358.7.7 0 0 1-.073.339 5.143 5.143 0 0 1-2.532 2.259 3.431 3.431 0 0 1-4.558-2.085 5.126 5.126 0 0 1-.08-3.03 6.039 6.039 0 0 1 2.034-3.276 3.139 3.139 0 0 1 1.944-.776 2.225 2.225 0 0 1 1.883.79 1.532 1.532 0 0 1-.318 2.169.41.41 0 0 1-.518.027.416.416 0 0 1-.088-.532 1.5 1.5 0 0 0 .156-.673.949.949 0 0 0-.753-.934 1.116 1.116 0 0 0-.705.169 2.678 2.678 0 0 0-.771.647 5.97 5.97 0 0 0-1.423 3.505z" transform="translate(1027.075 -1598.818)"/>
</svg>
