<svg xmlns="http://www.w3.org/2000/svg" width="27.334" height="27.334" viewBox="0 0 27.334 27.334">
    <defs>
        <clipPath id="oziamfgb8a">
            <path data-name="Path 3094" d="M550.021-96.778v6.078h-6.833v-6.074zm-9.87 0v6.078h-6.833v-6.074zm-9.111-8.807a1.2 1.2 0 0 1 .039-.3h9.072v6.074h-9.072a1.2 1.2 0 0 1-.039-.3zm3.037-4.859a1.64 1.64 0 0 1 1.736-1.519c1.909 0 3.078 1.655 3.722 3.037h-3.722a1.639 1.639 0 0 1-1.736-1.519zm13.45-1.519a1.64 1.64 0 0 1 1.736 1.519 1.64 1.64 0 0 1-1.736 1.519h-3.731c.638-1.382 1.8-3.037 3.731-3.037zm4.773 6.378v5.467a1.2 1.2 0 0 1-.039.3h-9.072v-6.074h9.072a1.2 1.2 0 0 1 .039.3zm.3-3.341h-.6a4.294 4.294 0 0 0 .293-1.519 4.673 4.673 0 0 0-4.767-4.555 6.784 6.784 0 0 0-5.857 3.64 6.785 6.785 0 0 0-5.857-3.64 4.673 4.673 0 0 0-4.773 4.556 4.325 4.325 0 0 0 .293 1.519h-.6c-1.532 0-2.733 1.468-2.733 3.341v5.467a3.169 3.169 0 0 0 2.278 3.286v6.631a2.652 2.652 0 0 0 2.752 2.531H550.3a2.652 2.652 0 0 0 2.753-2.531v-6.634a3.169 3.169 0 0 0 2.278-3.286v-5.467c0-1.872-1.2-3.341-2.733-3.341z" transform="translate(-528.002 115)" style="fill:#050505"/>
        </clipPath>
        <clipPath id="ysq3kx8dib">
            <path data-name="Rectangle 1347" style="fill:#050505" d="M0 0h44.923v43.987H0z"/>
        </clipPath>
        <clipPath id="9j97r197jc">
            <path data-name="Path 3093" d="M528-87.666h28.852V-115H528z" transform="translate(-528 115)" style="fill:#050505"/>
        </clipPath>
    </defs>
    <g data-name="Group 5927" style="clip-path:url(#oziamfgb8a)">
        <g data-name="Group 5926" style="isolation:isolate">
            <g data-name="Group 5925" transform="translate(-7.689 -8.253)" style="clip-path:url(#ysq3kx8dib)">
                <g data-name="Group 5924" transform="translate(7.686 8.253)" style="clip-path:url(#9j97r197jc)">
                    <path data-name="Path 3092" d="M523-120h42.519v42.519H523z" transform="translate(-530.591 112.407)" style="fill:#050505"/>
                </g>
            </g>
        </g>
    </g>
</svg>
