<svg xmlns="http://www.w3.org/2000/svg" width="143.03" height="80.29" viewBox="0 0 143.03 80.29">
  <defs>
    <style>
      .cls-1, .cls-2 {
        fill: #d7c4d4;
      }

      .cls-1 {
        stroke: #d7c4d4;
      }

      .cls-3 {
        fill: #fff;
        stroke-width: 3px;
      }

      .cls-3, .cls-4 {
        stroke: #641856;
      }

      .cls-4 {
        fill: #641856;
      }
    </style>
  </defs>
  <g id="Group_10412" data-name="Group 10412" transform="translate(-450.821 -462.218)">
    <path id="Path_3466" data-name="Path 3466" class="cls-1" d="M542.545,467.891a1.164,1.164,0,0,1,1.642-.12h0a18.674,18.674,0,0,1,3.4,24.293,1.163,1.163,0,0,1-1.945-1.273,16.346,16.346,0,0,0-2.977-21.258A1.166,1.166,0,0,1,542.545,467.891Z" transform="translate(31.641 2.194)"/>
    <path id="Path_3466-2" data-name="Path 3466" class="cls-1" d="M550.97,466.839a1.163,1.163,0,0,1,1.641-.12h0a18.671,18.671,0,0,1,3.4,24.292,1.163,1.163,0,0,1-1.945-1.273,16.346,16.346,0,0,0-2.978-21.258A1.166,1.166,0,0,1,550.97,466.839Z" transform="translate(34.295 1.863)"/>
    <path id="Path_3466-3" data-name="Path 3466" class="cls-1" d="M467.833,521.906a1.164,1.164,0,0,1-1.642.12h0a18.672,18.672,0,0,1-3.4-24.292,1.163,1.163,0,0,1,1.945,1.273,16.345,16.345,0,0,0,2.977,21.258A1.165,1.165,0,0,1,467.833,521.906Z" transform="translate(5.654 11.57)"/>
    <path id="Path_3466-4" data-name="Path 3466" class="cls-1" d="M459.408,522.958a1.163,1.163,0,0,1-1.641.12h0a18.671,18.671,0,0,1-3.4-24.292,1.163,1.163,0,0,1,1.945,1.273,16.346,16.346,0,0,0,2.979,21.258A1.166,1.166,0,0,1,459.408,522.958Z" transform="translate(3 11.901)"/>
    <path id="Path_3586" data-name="Path 3586" class="cls-2" d="M551.454,484.767a5.285,5.285,0,0,0-7.267-1.75h0a13.621,13.621,0,0,0-6.163,8.5c-.018.075-.462,3.015-1.482,9.73a1.163,1.163,0,0,1-2.114.3l-3.165-5.147-8.353-28.113a6.406,6.406,0,0,0-12.283,3.64l5.552,19.927-11.81-19.238a6.408,6.408,0,0,0-10.922,6.705L504.493,497.3l-12.84-12.162a6.405,6.405,0,0,0-8.81,9.3h0l13.331,12.629-8.59-4.654a5.823,5.823,0,1,0-5.548,10.24h0l11.493,6.227a28.033,28.033,0,0,1,10.507,9.954c1.023,1.669,5.561,5.161,7.016,6.471a7.85,7.85,0,0,0,2.237,1.187c5.178,1.176,14.257,1.836,18.786-.953l3.515-2.159h0a21.983,21.983,0,0,0,9.944-13.71l6.533-30.871A5.27,5.27,0,0,0,551.454,484.767Z" transform="translate(9.709 5)"/>
    <path id="Path_3587" data-name="Path 3587" class="cls-3" d="M546.864,485.728a5.287,5.287,0,0,0-7.218-1.945,13.626,13.626,0,0,0-6.39,8.328c-.021.075-.544,3-1.745,9.686a1.162,1.162,0,0,1-2.122.241l-3.024-5.23-7.59-28.329a6.406,6.406,0,0,0-12.377,3.307l5.011,20.07-11.288-19.55a6.407,6.407,0,0,0-11.1,6.408l10.555,18.278-12.506-12.506a6.406,6.406,0,0,0-9.129,8.989l.071.07L491,506.53l-8.461-4.884a5.823,5.823,0,1,0-5.824,10.086h0l11.322,6.536A30.712,30.712,0,0,1,498.272,528.5a22.471,22.471,0,0,0,9.041,7.906c5.071,1.579,14.21,2.22,18.8-.446l3.574-2.063h0A21.975,21.975,0,0,0,540,520.463l7.372-30.683A5.294,5.294,0,0,0,546.864,485.728Z" transform="translate(7.077 0.01)"/>
    <path id="Path_3466-5" data-name="Path 3466" class="cls-4" d="M511.849,519.493a1.164,1.164,0,0,1-1.59-.425h0A18.672,18.672,0,0,1,515.01,495a1.163,1.163,0,0,1,1.42,1.84,16.345,16.345,0,0,0-4.155,21.06A1.166,1.166,0,0,1,511.849,519.493Z" transform="translate(12.517 9.795)"/>
    <path id="Path_3466-6" data-name="Path 3466" class="cls-4" d="M467.833,521.906a1.164,1.164,0,0,1-1.642.12h0a18.672,18.672,0,0,1-3.4-24.292,1.163,1.163,0,0,1,1.945,1.273,16.345,16.345,0,0,0,2.977,21.258A1.165,1.165,0,0,1,467.833,521.906Z" transform="translate(2.654 10.57)"/>
    <path id="Path_3466-7" data-name="Path 3466" class="cls-4" d="M459.408,522.958a1.163,1.163,0,0,1-1.641.12h0a18.671,18.671,0,0,1-3.4-24.292,1.163,1.163,0,0,1,1.945,1.273,16.346,16.346,0,0,0,2.979,21.258A1.166,1.166,0,0,1,459.408,522.958Z" transform="translate(0 10.901)"/>
    <path id="Path_3466-8" data-name="Path 3466" class="cls-4" d="M542.545,467.891a1.164,1.164,0,0,1,1.642-.12h0a18.674,18.674,0,0,1,3.4,24.293,1.163,1.163,0,0,1-1.945-1.273,16.346,16.346,0,0,0-2.977-21.258A1.166,1.166,0,0,1,542.545,467.891Z" transform="translate(28.641 1.194)"/>
    <path id="Path_3466-9" data-name="Path 3466" class="cls-4" d="M550.97,466.839a1.163,1.163,0,0,1,1.641-.12h0a18.671,18.671,0,0,1,3.4,24.292,1.163,1.163,0,0,1-1.945-1.273,16.346,16.346,0,0,0-2.978-21.258A1.166,1.166,0,0,1,550.97,466.839Z" transform="translate(31.295 0.863)"/>
  </g>
</svg>
