<svg xmlns="http://www.w3.org/2000/svg" width="26.759" height="25.92" viewBox="0 0 26.759 25.92">
    <g data-name="Group 27758">
        <g data-name="Group 10999">
            <path data-name="Path 1297" d="M1924.835 1141.8h-5.018a2.427 2.427 0 0 0-2.425 2.424v12.117a.81.81 0 0 0 .81.809.8.8 0 0 0 .417-.116l2.941-2.109.13-.124a.8.8 0 0 1 .417-.116h.131l8.89.041a2.427 2.427 0 0 0 2.423-2.424v-4.578" transform="translate(-1916.141 -1132.477)" style="fill:none;stroke:#fff;stroke-linecap:round;stroke-miterlimit:10;stroke-width:2.5px"/>
            <path data-name="Path 5100" d="M1917.422 1147.721v4.578a2.427 2.427 0 0 0 2.423 2.424l8.89-.041h.132a.8.8 0 0 1 .416.116l.13.124 2.941 2.109a.808.808 0 0 0 .815.011.809.809 0 0 0 .411-.7v-12.117a2.427 2.427 0 0 0-2.425-2.424h-11.911s-1.753.06-1.823.982.001 4.938.001 4.938z" transform="translate(-1908.073 -1140.547)" style="fill:none;stroke:#fff;stroke-linecap:round;stroke-miterlimit:10;stroke-width:2.5px"/>
        </g>
    </g>
</svg>
