<svg xmlns="http://www.w3.org/2000/svg" width="36.325" height="35.173" viewBox="0 0 36.325 35.173">
    <defs>
        <style>
            .cls-1{fill:none;stroke:#050505;stroke-linecap:round;stroke-miterlimit:10;stroke-width:3px}
        </style>
    </defs>
    <g id="Group_11170" data-name="Group 11170" transform="translate(1.5 1.5)">
        <g id="Group_10999" data-name="Group 10999">
            <path id="Path_1297" data-name="Path 1297" class="cls-1" d="M1927.617 1141.8h-6.893a3.334 3.334 0 0 0-3.332 3.33v16.646a1.112 1.112 0 0 0 .565.968 1.11 1.11 0 0 0 1.119-.015l4.041-2.9.179-.171a1.094 1.094 0 0 1 .572-.159h.18l12.212.056a3.334 3.334 0 0 0 3.329-3.33v-6.289" transform="translate(-1917.392 -1130.711)"/>
            <path id="Path_5100" data-name="Path 5100" class="cls-1" d="M1917.434 1149.935v6.289a3.334 3.334 0 0 0 3.329 3.33l12.213-.056h.181a1.094 1.094 0 0 1 .572.159l.179.171 4.041 2.9a1.111 1.111 0 0 0 1.119.015 1.112 1.112 0 0 0 .565-.968v-16.646a3.334 3.334 0 0 0-3.332-3.33h-16.363s-2.408.082-2.5 1.35-.004 6.786-.004 6.786z" transform="translate(-1906.307 -1141.797)"/>
        </g>
    </g>
</svg>
