<svg xmlns="http://www.w3.org/2000/svg" width="39" height="39" viewBox="0 0 39 39">
    <path data-name="Path 13489" d="M0 19.5A19.5 19.5 0 1 1 19.5 39 19.5 19.5 0 0 1 0 19.5m13.78-3.349H9.361v13.278h4.419zm.291-4.107A2.3 2.3 0 0 0 11.6 9.75a2.3 2.3 0 1 0-.058 4.589h.028a2.3 2.3 0 0 0 2.5-2.3m15.646 9.772c0-4.078-2.18-5.977-5.088-5.977a4.388 4.388 0 0 0-3.984 2.193v-1.88h-4.418c.058 1.246 0 13.277 0 13.277h4.419v-7.41a3.036 3.036 0 0 1 .145-1.077 2.419 2.419 0 0 1 2.268-1.614c1.6 0 2.239 1.218 2.239 3v7.1h4.419z" style="fill:#0076b4;fill-rule:evenodd"/>
</svg>
