<svg xmlns="http://www.w3.org/2000/svg" width="21.097" height="26.372" viewBox="0 0 21.097 26.372">
    <path data-name="Path 1764" d="M492.551-351.133a1.98 1.98 0 0 1-1.978-1.978 1.98 1.98 0 0 1 1.978-1.978 1.98 1.98 0 0 1 1.978 1.978 1.98 1.98 0 0 1-1.978 1.978m0-6.593a4.62 4.62 0 0 0-4.615 4.615 4.62 4.62 0 0 0 4.615 4.615 4.62 4.62 0 0 0 4.615-4.615 4.62 4.62 0 0 0-4.615-4.615m0 17.994c-2.209-2.089-7.911-7.952-7.911-12.822a7.869 7.869 0 0 1 7.911-7.809 7.869 7.869 0 0 1 7.912 7.809c0 4.87-5.7 10.733-7.912 12.822m0-23.268A10.509 10.509 0 0 0 482-352.554c0 7.219 9.295 15.268 9.69 15.607a1.316 1.316 0 0 0 .858.319 1.316 1.316 0 0 0 .858-.319c.4-.339 9.69-8.388 9.69-15.607A10.509 10.509 0 0 0 492.551-363" transform="translate(-482.002 363)" style="fill:#707070"/>
</svg>
