<svg xmlns="http://www.w3.org/2000/svg" width="31.006" height="22.219" viewBox="0 0 31.006 22.219">
    <g data-name="Group 28656">
        <path data-name="Path 13814" d="M29.233 21.719h-28A1.236 1.236 0 0 1 0 20.484V1.235A1.236 1.236 0 0 1 1.235 0h28a1.236 1.236 0 0 1 1.235 1.235v19.249a1.236 1.236 0 0 1-1.236 1.235m-26.763-2.47H28V2.471H2.471z" transform="translate(.269 .25)" style="fill:#707070;stroke:#707070;stroke-linecap:round;stroke-linejoin:round;stroke-width:.5px"/>
        <path data-name="Path 13815" d="M15.235 11.949a1.233 1.233 0 0 1-.692-.212l-14-9.478A1.235 1.235 0 0 1 1.235 0h28a1.236 1.236 0 0 1 .693 2.258l-14 9.478a1.233 1.233 0 0 1-.692.212M5.263 2.471l9.972 6.752 9.972-6.752z" transform="translate(.269 .249)" style="fill:#707070;stroke:#707070;stroke-linecap:round;stroke-linejoin:round;stroke-width:.5px"/>
    </g>
</svg>
