<svg xmlns="http://www.w3.org/2000/svg" width="26.372" height="26.372" viewBox="0 0 26.372 26.372">
    <path data-name="Path 1815" d="M534.068-263.363a3.432 3.432 0 0 0-3.428 3.428 17.69 17.69 0 0 0 17.669 17.669 3.432 3.432 0 0 0 3.428-3.428 3.338 3.338 0 0 0-.028-.432l-6.092-1.4-.376.719c-.6 1.147-1.036 1.98-2.147 1.533a15.654 15.654 0 0 1-9.468-9.5c-.471-1.035.426-1.5 1.563-2.1l.708-.371-1.4-6.093a3.439 3.439 0 0 0-.433-.028m14.241 23.735A20.329 20.329 0 0 1 528-259.934a6.071 6.071 0 0 1 6.068-6.066 5.944 5.944 0 0 1 1.01.086 5.733 5.733 0 0 1 .956.241 1.321 1.321 0 0 1 .853.952l1.805 7.864a1.315 1.315 0 0 1-.334 1.208c-.179.187-.183.191-1.818 1.047a13.118 13.118 0 0 0 6.433 6.439c.857-1.636.862-1.642 1.05-1.821a1.331 1.331 0 0 1 1.208-.334l7.865 1.805a1.316 1.316 0 0 1 .949.852 5.77 5.77 0 0 1 .244.964 6.011 6.011 0 0 1 .084 1 6.072 6.072 0 0 1-6.065 6.065" transform="translate(-528.002 266)" style="fill:#707070"/>
</svg>
