<svg xmlns="http://www.w3.org/2000/svg" width="39.001" height="39.001" viewBox="0 0 39.001 39.001">
    <path data-name="Path 13484" d="M19.5 163.746a19.494 19.494 0 0 0-7.957 37.292c-.023-.548-.045-1.1-.029-1.647.065-1.9.3-2.547 2.742-12.828a.705.705 0 0 0-.055-.429 7.221 7.221 0 0 1-.19-4.8c1.106-3.506 5.08-3.775 5.776-.882.428 1.79-.7 4.131-1.574 7.593-.721 2.857 2.641 4.888 5.516 2.8 2.65-1.921 3.678-6.53 3.483-9.8-.386-6.511-7.526-7.919-12.057-5.822-5.192 2.4-6.372 8.839-4.029 11.78.3.375.527.6.429.983-.151.589-.284 1.183-.448 1.768a.625.625 0 0 1-.925.416 5.3 5.3 0 0 1-2.169-1.625c-1.992-2.466-2.561-7.343.072-11.473 2.916-4.574 8.341-6.424 13.295-5.863 5.917.673 9.658 4.716 10.357 9.3.32 2.09.09 7.241-2.842 10.882-3.375 4.184-8.845 4.462-11.367 1.894-.2-.2-.351-.428-.541-.662-.028.095-.054.174-.074.255-1.21 4.745-1.347 5.8-2.59 8-.192.338-.4.662-.611.99a19.5 19.5 0 1 0 5.788-38.122" transform="translate(0 -163.746)" style="fill:red"/>
</svg>
