<svg id="Group_27891" data-name="Group 27891" xmlns="http://www.w3.org/2000/svg" xmlns:xlink="http://www.w3.org/1999/xlink" width="77" height="77" viewBox="0 0 77 77">
  <defs>
    <style>
      .cls-1 {
        fill: none;
      }

      .cls-2 {
        clip-path: url(#clip-path);
      }
    </style>
    <clipPath id="clip-path">
      <rect id="Rectangle_4789" data-name="Rectangle 4789" class="cls-1" width="77" height="77"/>
    </clipPath>
  </defs>
  <g id="Group_27890" data-name="Group 27890" class="cls-2">
    <path id="Path_13559" data-name="Path 13559" d="M38.5,0A38.5,38.5,0,1,0,77,38.5,38.535,38.535,0,0,0,38.5,0m0,73.758A35.258,35.258,0,1,1,73.758,38.5,35.283,35.283,0,0,1,38.5,73.758"/>
    <path id="Path_13560" data-name="Path 13560" d="M61.484,39.172,39.114,25.231a4.8,4.8,0,0,0-4.782-.162A4.552,4.552,0,0,0,31.9,29.2V57.166A4.736,4.736,0,0,0,34.332,61.3a4.5,4.5,0,0,0,2.269.567,4.751,4.751,0,0,0,2.513-.729L61.484,47.2a4.689,4.689,0,0,0,2.188-3.972,4.828,4.828,0,0,0-2.188-4.053M59.7,44.36,37.331,58.3a1.311,1.311,0,0,1-1.459,0,1.391,1.391,0,0,1-.729-1.216V29.122a1.284,1.284,0,0,1,.729-1.216,1.618,1.618,0,0,1,.729-.162,1.307,1.307,0,0,1,.729.243L59.7,41.928a1.5,1.5,0,0,1,.648,1.216A1.158,1.158,0,0,1,59.7,44.36" transform="translate(-6.044 -4.644)"/>
  </g>
</svg>
