<svg xmlns="http://www.w3.org/2000/svg" width="82.34" height="82.722" viewBox="0 0 82.34 82.722">
    <g data-name="Group 28818">
        <g data-name="Group 8811" transform="translate(3.32 4.13)">
            <path data-name="Path 4288" d="m1189.19 529.311-.246-.318.366-.17a41.9 41.9 0 0 1 8.883-3.011 1.226 1.226 0 1 0-.508-2.4 44.76 44.76 0 0 0-10.1 3.513l-.226.108-.16-.191a108.673 108.673 0 0 0-6.416-6.976c-2.485-2.484-4.974-4.762-7.4-6.77l-.242-.2.194-.245a34.7 34.7 0 0 0 5.006-8.7 45.553 45.553 0 0 0 2.989-16.909 1.227 1.227 0 1 0-2.453 0c0 9.74-2.508 17.842-7.456 24.082l-.195.247-.251-.191a57.76 57.76 0 0 0-2.663-1.922c-4.44-2.995-7.043-3.729-8.443-2.381l-.052.048a2.267 2.267 0 0 0-.618 1.242l-.021.073-22.842 54.47a1.223 1.223 0 0 0 .264 1.342 1.242 1.242 0 0 0 1.341.263l54.505-22.857.038-.007a2.206 2.206 0 0 0 1.163-.55l.12-.113c1.354-1.4.619-4.008-2.375-8.449a58.12 58.12 0 0 0-2.202-3.028z" transform="translate(-1136.239 -485.816)" style="fill:#a5f9c1"/>
            <path data-name="Path 4289" d="M1203.4 511.763a1.257 1.257 0 0 0 1.736 0c3.519-3.519 9.2-5.131 13.351-5.466a1.226 1.226 0 0 0 1.123-1.321 1.235 1.235 0 0 0-1.322-1.124c-4.582.37-10.9 2.186-14.889 6.176a1.23 1.23 0 0 0 .001 1.735z" transform="translate(-1145.703 -488.371)" style="fill:#a5f9c1"/>
            <path data-name="Path 4290" d="M1191.107 516.718h1.869v1.869a1.227 1.227 0 0 0 2.453 0v-1.869h1.869a1.226 1.226 0 1 0 0-2.452h-1.869V512.4a1.227 1.227 0 0 0-2.453 0v1.869h-1.869a1.226 1.226 0 1 0 0 2.452z" transform="translate(-1143.838 -489.408)" style="fill:#a5f9c1"/>
            <path data-name="Path 4291" d="M1211.932 556.494h-1.868v-1.869a1.227 1.227 0 0 0-2.454 0v1.869h-1.868a1.227 1.227 0 1 0 0 2.453h1.868v1.869a1.227 1.227 0 0 0 2.454 0v-1.869h1.868a1.227 1.227 0 1 0 0-2.453z" transform="translate(-1145.912 -495.39)" style="fill:#a5f9c1"/>
            <path data-name="Path 4292" d="M1149.666 499.964h1.867v1.869a1.227 1.227 0 0 0 2.454 0v-1.869h1.868a1.227 1.227 0 0 0 0-2.453h-1.868v-1.869a1.227 1.227 0 0 0-2.454 0v1.869h-1.867a1.227 1.227 0 1 0 0 2.453z" transform="translate(-1137.967 -487.034)" style="fill:#a5f9c1"/>
            <circle data-name="Ellipse 271" cx="4.322" cy="4.322" r="4.322" transform="translate(65.386 26.869)" style="fill:#a5f9c1"/>
            <circle data-name="Ellipse 272" cx="4.322" cy="4.322" r="4.322" transform="translate(26.078 5.513)" style="fill:#a5f9c1"/>
            <circle data-name="Ellipse 273" cx="4.322" cy="4.322" r="4.322" transform="translate(56.398 .322)" style="fill:#a5f9c1"/>
            <path data-name="Path 4293" d="M1214.849 537.032a1.227 1.227 0 1 0 1.228 1.227 1.228 1.228 0 0 0-1.228-1.227z" transform="translate(-1147.202 -493.072)" style="fill:#a5f9c1"/>
            <path data-name="Path 4294" d="M1226.669 503.07a1.227 1.227 0 1 0 1.228 1.227 1.228 1.228 0 0 0-1.228-1.227z" transform="translate(-1148.876 -488.26)" style="fill:#a5f9c1"/>
            <path data-name="Path 4295" d="M1219.427 550.555a1.227 1.227 0 1 0 1.226 1.227 1.228 1.228 0 0 0-1.226-1.227z" transform="translate(-1147.85 -494.987)" style="fill:#a5f9c1"/>
            <path data-name="Path 4296" d="M1196.046 502.071a1.548 1.548 0 1 0-1.547-1.548 1.551 1.551 0 0 0 1.547 1.548z" transform="translate(-1144.493 -487.68)" style="fill:#a5f9c1"/>
            <path data-name="Path 4297" d="M1160.708 490.715a1.548 1.548 0 1 0-1.547-1.548 1.551 1.551 0 0 0 1.547 1.548z" transform="translate(-1139.486 -486.072)" style="fill:#a5f9c1"/>
        </g>
        <g data-name="Group 8812" transform="translate(.27 .25)">
            <path data-name="Path 4298" d="m1185.637 524.79-.246-.318.366-.169a41.888 41.888 0 0 1 8.882-3.011 1.227 1.227 0 1 0-.508-2.4 44.772 44.772 0 0 0-10.1 3.514l-.225.108-.161-.191a108.65 108.65 0 0 0-6.416-6.976c-2.485-2.485-4.974-4.763-7.4-6.771l-.242-.2.195-.246a34.707 34.707 0 0 0 5.005-8.7 45.559 45.559 0 0 0 2.99-16.909 1.227 1.227 0 0 0-2.454 0c0 9.739-2.508 17.842-7.456 24.081l-.2.247-.251-.191a56.957 56.957 0 0 0-2.663-1.921c-4.441-3-7.043-3.73-8.443-2.382l-.051.048a2.259 2.259 0 0 0-.617 1.242l-.021.073-22.842 54.47a1.223 1.223 0 0 0 .264 1.342 1.241 1.241 0 0 0 1.342.264l54.506-22.857.038-.006a2.222 2.222 0 0 0 1.163-.55l.119-.113c1.354-1.4.62-4.008-2.375-8.449a55.199 55.199 0 0 0-2.199-3.029z" transform="translate(-1132.686 -481.296)" style="fill:#fff"/>
            <path data-name="Path 4299" d="M1199.849 507.243a1.257 1.257 0 0 0 1.735 0c3.519-3.52 9.2-5.131 13.351-5.466a1.227 1.227 0 0 0 1.124-1.321 1.236 1.236 0 0 0-1.322-1.124c-4.581.37-10.9 2.186-14.888 6.176a1.229 1.229 0 0 0 0 1.735z" transform="translate(-1142.15 -483.851)" style="fill:#fff"/>
            <path data-name="Path 4300" d="M1187.554 512.2h1.868v1.869a1.227 1.227 0 0 0 2.454 0V512.2h1.868a1.227 1.227 0 1 0 0-2.453h-1.868v-1.869a1.227 1.227 0 0 0-2.454 0v1.869h-1.868a1.227 1.227 0 1 0 0 2.453z" transform="translate(-1140.285 -484.888)" style="fill:#fff"/>
            <path data-name="Path 4301" d="M1208.38 551.974h-1.869V550.1a1.227 1.227 0 0 0-2.453 0v1.869h-1.869a1.227 1.227 0 1 0 0 2.453h1.869v1.868a1.227 1.227 0 1 0 2.453 0v-1.868h1.869a1.227 1.227 0 0 0 0-2.453z" transform="translate(-1142.359 -490.87)" style="fill:#fff"/>
            <path data-name="Path 4302" d="M1146.112 495.443h1.868v1.869a1.227 1.227 0 0 0 2.453 0v-1.869h1.869a1.226 1.226 0 0 0 0-2.452h-1.869v-1.869a1.227 1.227 0 1 0-2.453 0v1.869h-1.868a1.226 1.226 0 1 0 0 2.452z" transform="translate(-1134.414 -482.514)" style="fill:#fff"/>
            <circle data-name="Ellipse 274" cx="4.322" cy="4.322" r="4.322" transform="translate(65.386 26.869)" style="fill:#fff"/>
            <circle data-name="Ellipse 275" cx="4.322" cy="4.322" r="4.322" transform="translate(26.078 5.512)" style="fill:#fff"/>
            <circle data-name="Ellipse 276" cx="4.322" cy="4.322" r="4.322" transform="translate(56.399 .321)" style="fill:#fff"/>
            <path data-name="Path 4303" d="M1211.3 532.512a1.227 1.227 0 1 0 1.227 1.226 1.227 1.227 0 0 0-1.227-1.226z" transform="translate(-1143.649 -488.552)" style="fill:#fff"/>
            <path data-name="Path 4304" d="M1223.117 498.55a1.227 1.227 0 1 0 1.227 1.227 1.227 1.227 0 0 0-1.227-1.227z" transform="translate(-1145.323 -483.74)" style="fill:#fff"/>
            <path data-name="Path 4305" d="M1215.873 546.034a1.227 1.227 0 1 0 1.227 1.227 1.228 1.228 0 0 0-1.227-1.227z" transform="translate(-1144.297 -490.467)" style="fill:#fff"/>
            <path data-name="Path 4306" d="M1192.493 497.55a1.548 1.548 0 1 0-1.548-1.548 1.551 1.551 0 0 0 1.548 1.548z" transform="translate(-1140.94 -483.16)" style="fill:#fff"/>
            <path data-name="Path 4307" d="M1157.155 486.194a1.548 1.548 0 1 0-1.548-1.548 1.551 1.551 0 0 0 1.548 1.548z" transform="translate(-1135.933 -481.551)" style="fill:#fff"/>
        </g>
        <g data-name="Group 8827">
            <g data-name="Group 8813">
                <path data-name="Path 4308" d="M1156.263 502.4a2.259 2.259 0 0 0-.617 1.242l-.021.073-22.842 54.47a1.223 1.223 0 0 0 .264 1.342 1.241 1.241 0 0 0 1.342.264l54.506-22.857.038-.006a2.222 2.222 0 0 0 1.163-.55l.119-.113c1.354-1.4.62-4.008-2.375-8.449a58.615 58.615 0 0 0-2.2-3.029l-.246-.318.365-.169a41.908 41.908 0 0 1 8.883-3.011 1.227 1.227 0 1 0-.508-2.4 44.772 44.772 0 0 0-10.1 3.514l-.225.108-.16-.191a108.965 108.965 0 0 0-6.417-6.976c-2.485-2.485-4.974-4.763-7.4-6.771l-.242-.2.195-.246a34.707 34.707 0 0 0 5.005-8.7 45.559 45.559 0 0 0 2.99-16.909 1.227 1.227 0 0 0-2.454 0c0 9.739-2.508 17.842-7.456 24.081l-.2.247-.251-.191a56.957 56.957 0 0 0-2.663-1.921c-4.441-3-7.043-3.73-8.443-2.382l-.051.048zm-20.063 53.973 7.158-17.068.291.728a17.412 17.412 0 0 1 1.305 9.2 10.686 10.686 0 0 1-1.433 4l-.054.086zm10.643-4.463.179-.639c.864-3.07 1.159-8.138-2.334-14.841l-.069-.133 4.959-11.824.318.6c4.9 9.292 5.2 15.424 4.58 18.932a10.233 10.233 0 0 1-2.851 5.88l-.091.057zm8.922-3.742.281-.709a15.369 15.369 0 0 0 .785-2.7c1.222-6.241-.786-13.987-5.971-23.021l-.079-.138 1.941-4.627.338.407a26.328 26.328 0 0 1 3.495 5.353 1.248 1.248 0 0 0 1.611.643 1.228 1.228 0 0 0 .643-1.611 29.054 29.054 0 0 0-4.9-7.109l-.149-.152 2.9-6.912.319.586c.439.8.995 1.706 1.654 2.683.447.663.949 1.367 1.492 2.1a29.435 29.435 0 0 1 4.2 21.992 31.51 31.51 0 0 1-4.378 11.416l-.053.071zm7.861-3.3.341-.747a38.627 38.627 0 0 0 2.763-8.718 33.055 33.055 0 0 0-.292-14.092l-.289-1.179.834.882c.736.779 1.5 1.559 2.255 2.318 2.291 2.291 4.6 4.42 6.869 6.326l.119.1v.155c-.227 7.465-3.709 10.891-4.4 11.5l-.088.055zm12.655-5.307.369-.764a20.633 20.633 0 0 0 1.857-6.579l.066-.56.448.342a56.262 56.262 0 0 0 2.689 1.94 33.956 33.956 0 0 0 2.684 1.654l.586.319zm12.162-5.012-.5-.113c-.724-.165-2.434-.792-5.748-3.141a101.9 101.9 0 0 1-20.923-20.923c-2.35-3.317-2.977-5.026-3.141-5.749l-.113-.5.5.112c.723.165 2.432.791 5.748 3.142.486.344.985.711 1.492 1.1l.289.219-.582.6a1.228 1.228 0 0 0 0 1.735 1.257 1.257 0 0 0 1.735 0c.193-.192.382-.388.57-.585l.206-.216.231.191c2.36 1.951 4.88 4.253 7.285 6.659 2.084 2.084 4.043 4.2 5.821 6.287l.254.3-.343.19q-.416.232-.833.472a1.229 1.229 0 0 0-.449 1.675 1.26 1.26 0 0 0 1.676.449c.433-.25.864-.489 1.3-.724l.239-.129.166.213a61.462 61.462 0 0 1 1.87 2.493c2.351 3.318 2.977 5.026 3.14 5.749z" transform="translate(-1132.416 -481.046)" style="fill:#0fac4c;stroke:#fff;stroke-miterlimit:10;stroke-width:.5px"/>
            </g>
            <g data-name="Group 8814">
                <path data-name="Path 4309" d="M1163.079 532.254a1.229 1.229 0 0 0-1.142 1.673 1.251 1.251 0 0 0 1.552.722 1.226 1.226 0 0 0 .753-1.563 1.593 1.593 0 0 0-.043-.107 1.23 1.23 0 0 0-1.119-.724z" transform="translate(-1136.549 -488.265)" style="fill:#0fac4c;stroke:#fff;stroke-miterlimit:10;stroke-width:.5px"/>
            </g>
            <g data-name="Group 8815">
                <path data-name="Path 4310" d="M1199.849 507.243a1.257 1.257 0 0 0 1.735 0c3.519-3.52 9.2-5.131 13.351-5.466a1.227 1.227 0 0 0 1.124-1.321 1.236 1.236 0 0 0-1.322-1.124c-4.581.37-10.9 2.186-14.888 6.176a1.229 1.229 0 0 0 0 1.736z" transform="translate(-1141.88 -483.6)" style="fill:#0fac4c;stroke:#fff;stroke-miterlimit:10;stroke-width:.5px"/>
            </g>
            <g data-name="Group 8816">
                <path data-name="Path 4311" d="M1187.554 509.745a1.227 1.227 0 1 0 0 2.453h1.868v1.869a1.227 1.227 0 0 0 2.454 0V512.2h1.868a1.227 1.227 0 1 0 0-2.453h-1.868v-1.869a1.227 1.227 0 0 0-2.454 0v1.869z" transform="translate(-1140.015 -484.638)" style="fill:#0fac4c;stroke:#fff;stroke-miterlimit:10;stroke-width:.5px"/>
            </g>
            <g data-name="Group 8817">
                <path data-name="Path 4312" d="M1202.189 551.974a1.227 1.227 0 1 0 0 2.453h1.869v1.868a1.227 1.227 0 1 0 2.453 0v-1.868h1.869a1.227 1.227 0 0 0 0-2.453h-1.869V550.1a1.227 1.227 0 0 0-2.453 0v1.869z" transform="translate(-1142.089 -490.62)" style="fill:#0fac4c;stroke:#fff;stroke-miterlimit:10;stroke-width:.5px"/>
            </g>
            <g data-name="Group 8818">
                <path data-name="Path 4313" d="M1146.112 492.991a1.226 1.226 0 1 0 0 2.452h1.868v1.869a1.227 1.227 0 0 0 2.453 0v-1.869h1.869a1.226 1.226 0 0 0 0-2.452h-1.869v-1.869a1.227 1.227 0 1 0-2.453 0v1.869z" transform="translate(-1134.144 -482.264)" style="fill:#0fac4c;stroke:#fff;stroke-miterlimit:10;stroke-width:.5px"/>
            </g>
            <g data-name="Group 8819">
                <path data-name="Path 4314" d="M1213.187 512.6a4.322 4.322 0 1 0 4.322 4.322 4.326 4.326 0 0 0-4.322-4.322zm0 6.189a1.868 1.868 0 1 1 1.867-1.868 1.87 1.87 0 0 1-1.867 1.868z" transform="translate(-1143.208 -485.481)" style="fill:#0fac4c;stroke:#fff;stroke-miterlimit:10;stroke-width:.5px"/>
            </g>
            <g data-name="Group 8820">
                <path data-name="Path 4315" d="M1167.391 487.718a4.322 4.322 0 1 0 4.322 4.322 4.327 4.327 0 0 0-4.322-4.322zm0 6.19a1.869 1.869 0 1 1 1.868-1.869 1.871 1.871 0 0 1-1.868 1.869z" transform="translate(-1136.721 -481.956)" style="fill:#0fac4c;stroke:#fff;stroke-miterlimit:10;stroke-width:.5px"/>
            </g>
            <g data-name="Group 8821">
                <path data-name="Path 4316" d="M1202.715 481.67a4.322 4.322 0 1 0 4.322 4.322 4.327 4.327 0 0 0-4.322-4.322zm0 6.19a1.869 1.869 0 1 1 1.868-1.869 1.87 1.87 0 0 1-1.868 1.869z" transform="translate(-1141.725 -481.099)" style="fill:#0fac4c;stroke:#fff;stroke-miterlimit:10;stroke-width:.5px"/>
            </g>
            <g data-name="Group 8822">
                <path data-name="Path 4317" d="M1211.3 532.512a1.227 1.227 0 1 0 1.227 1.226 1.227 1.227 0 0 0-1.227-1.226z" transform="translate(-1143.379 -488.302)" style="fill:#0fac4c;stroke:#fff;stroke-miterlimit:10;stroke-width:.5px"/>
            </g>
            <g data-name="Group 8823">
                <path data-name="Path 4318" d="M1223.117 498.55a1.227 1.227 0 1 0 1.227 1.227 1.227 1.227 0 0 0-1.227-1.227z" transform="translate(-1145.054 -483.49)" style="fill:#0fac4c;stroke:#fff;stroke-miterlimit:10;stroke-width:.5px"/>
            </g>
            <g data-name="Group 8824">
                <path data-name="Path 4319" d="M1215.873 546.034a1.227 1.227 0 1 0 1.227 1.227 1.228 1.228 0 0 0-1.227-1.227z" transform="translate(-1144.027 -490.217)" style="fill:#0fac4c;stroke:#fff;stroke-miterlimit:10;stroke-width:.5px"/>
            </g>
            <g data-name="Group 8825">
                <path data-name="Path 4320" d="M1192.493 497.55a1.548 1.548 0 1 0-1.548-1.548 1.551 1.551 0 0 0 1.548 1.548z" transform="translate(-1140.67 -482.91)" style="fill:#0fac4c;stroke:#fff;stroke-miterlimit:10;stroke-width:.5px"/>
            </g>
            <g data-name="Group 8826">
                <path data-name="Path 4321" d="M1157.155 486.194a1.548 1.548 0 1 0-1.548-1.548 1.551 1.551 0 0 0 1.548 1.548z" transform="translate(-1135.663 -481.301)" style="fill:#0fac4c;stroke:#fff;stroke-miterlimit:10;stroke-width:.5px"/>
            </g>
        </g>
    </g>
</svg>
