<svg xmlns="http://www.w3.org/2000/svg" width="22.078" height="25.676" viewBox="0 0 22.078 25.676">
    <g data-name="Group 28811">
        <path data-name="Path 14894" d="M10.789 25.174a.9.9 0 0 1-.372-.081C9.992 24.9 0 20.269 0 12.587V4.5a.9.9 0 0 1 .592-.85l9.89-3.6a.9.9 0 0 1 .615 0l9.89 3.6a.9.9 0 0 1 .592.845v8.092c0 7.682-9.992 12.314-10.417 12.506a.9.9 0 0 1-.372.081M1.8 5.125v7.462c0 5.769 7.248 9.8 8.991 10.686 1.742-.885 8.991-4.918 8.991-10.686V5.125l-8.993-3.269z" transform="translate(.25 .252)" style="stroke:#000;stroke-width:.5px"/>
        <path data-name="Path 14895" d="M6.4 25.174a.9.9 0 0 1-.9-.9V.9a.9.9 0 1 1 1.8 0v23.375a.9.9 0 0 1-.9.9" transform="translate(4.64 .252)" style="stroke:#000;stroke-width:.5px"/>
        <path data-name="Path 14896" d="M20.679 7.8H.9A.9.9 0 0 1 .9 6h19.78a.9.9 0 0 1 0 1.8" transform="translate(.25 5.041)" style="stroke:#000;stroke-width:.5px"/>
    </g>
</svg>
