<svg id="Layer_1" data-name="Layer 1" xmlns="http://www.w3.org/2000/svg" viewBox="0 0 566.93 566.93"><defs><style>.cls-1{fill:#fff;}.cls-2{fill:#f51355;}</style></defs><path class="cls-1" d="M296,264h10.13a1.31,1.31,0,0,1,.93.39,1.26,1.26,0,0,1,.39.94v55.33a1.26,1.26,0,0,1-.39.94,1.31,1.31,0,0,1-.93.39H296a1.31,1.31,0,0,1-.93-.39,1.26,1.26,0,0,1-.39-.94V287.75c0-.3-.06-.45-.21-.45s-.29.12-.44.33L284.46,305c-.37.59-.7.88-1,.88s-.62-.29-1-.88l-9.57-17.38c-.15-.21-.3-.33-.44-.33s-.23.15-.23.45v32.89a1.25,1.25,0,0,1-.38.94,1.28,1.28,0,0,1-.94.39H260.81a1.31,1.31,0,0,1-1.32-1.33V265.31a1.31,1.31,0,0,1,1.32-1.33h10.11a1.82,1.82,0,0,1,1.65.89l10.68,18.81c.21.29.44.29.65,0l10.45-18.81A1.83,1.83,0,0,1,296,264Z"/><path class="cls-2" d="M259.48,255.29v-8.14c0-1.46.82-2.19,2.45-2.19h8.22c1.63,0,2.45.73,2.45,2.19v8.14a2,2,0,0,1-2.25,2.26h-8.61A2,2,0,0,1,259.48,255.29Z"/><path class="cls-2" d="M294.32,255.29v-8.14c0-1.46.82-2.19,2.45-2.19H305c1.63,0,2.45.73,2.45,2.19v8.14a2,2,0,0,1-2.25,2.26h-8.61A2,2,0,0,1,294.32,255.29Z"/></svg>