<svg data-name="Group 29167" xmlns="http://www.w3.org/2000/svg" width="77.231" height="93.582" viewBox="0 0 77.231 93.582">
    <defs>
        <clipPath id="ap7zk3tjza">
            <path data-name="Rectangle 4960" style="fill:none" d="M0 0h77.231v93.582H0z"/>
        </clipPath>
        <clipPath id="hjw0ydurmb">
            <path data-name="Rectangle 4958" style="fill:none" d="M0 0h73.828v91.881H0z"/>
        </clipPath>
    </defs>
    <g data-name="Group 29166" style="clip-path:url(#ap7zk3tjza)">
        <g data-name="Group 29165">
            <g data-name="Group 29164" style="clip-path:url(#ap7zk3tjza)">
                <g data-name="Group 29163" style="opacity:.137;isolation:isolate">
                    <g data-name="Group 29162">
                        <g data-name="Group 29161" style="clip-path:url(#hjw0ydurmb)" transform="translate(3.403 1.702)">
                            <path data-name="Path 14908" d="M74.126 1H61.893a1.692 1.692 0 0 0-.65.131 1.821 1.821 0 0 0-.315.206 1.781 1.781 0 0 0-.231.157 1.713 1.713 0 0 0-.371.55v.005l-8.418 20.225H32.5a15.423 15.423 0 0 0-4.235-8.95 1.518 1.518 0 0 0-.117-.177 1.617 1.617 0 0 0-.242-.162 15.134 15.134 0 0 0-4.979-3.263 15.131 15.131 0 0 0-5.372-1.012 1.6 1.6 0 0 0-.238-.048 1.6 1.6 0 0 0-.257.051 15.345 15.345 0 0 0-10.369 4.3 1.413 1.413 0 0 0-.2.133 1.767 1.767 0 0 0-.1.15c-.134.138-.286.25-.415.393a15.329 15.329 0 0 0-3.93 10.083 1.641 1.641 0 0 0-.041.2c0 .041.02.073.022.112A14.931 14.931 0 0 0 6.4 34.679c.034.039.046.087.083.124a1.468 1.468 0 0 0 .182.121 15.411 15.411 0 0 0 10.675 4.361c.123 0 .245-.019.368-.022 2.2 8.007 6.646 16.625 15.536 21.612a29.2 29.2 0 0 0 3.971 1.867h.012a18.641 18.641 0 0 0 4.885 1.121v25.615h-10.53a1.7 1.7 0 0 0 0 3.4h24.463a1.7 1.7 0 0 0 0-3.4H45.517V63.865a18.653 18.653 0 0 0 4.883-1.121h.009a29.353 29.353 0 0 0 3.968-1.865C63.6 55.7 68.023 46.636 70.14 38.387a1.674 1.674 0 0 0 .286-1.126A62.95 62.95 0 0 0 72.016 24v-.022a1.588 1.588 0 0 0-.058-.284 1.651 1.651 0 0 0-.073-.369 1.533 1.533 0 0 0-.15-.226 1.738 1.738 0 0 0-.211-.316 1.844 1.844 0 0 0-.223-.153 1.7 1.7 0 0 0-.315-.213 1.869 1.869 0 0 0-.3-.065 1.592 1.592 0 0 0-.349-.075H55.594L63.028 4.4h11.1a1.7 1.7 0 0 0 0-3.4" transform="translate(-2 -1)" style="fill:#f51355"/>
                        </g>
                    </g>
                </g>
                <path data-name="Path 14909" d="M72.126 0H59.893a1.692 1.692 0 0 0-.65.131 1.821 1.821 0 0 0-.315.206 1.781 1.781 0 0 0-.228.156 1.713 1.713 0 0 0-.371.55v.005l-8.421 20.226H30.5a15.423 15.423 0 0 0-4.235-8.95 1.519 1.519 0 0 0-.117-.177 1.617 1.617 0 0 0-.242-.162 15.134 15.134 0 0 0-4.979-3.263 15.131 15.131 0 0 0-5.372-1.012 1.6 1.6 0 0 0-.238-.048 1.6 1.6 0 0 0-.257.051 15.345 15.345 0 0 0-10.369 4.3 1.413 1.413 0 0 0-.2.133 1.767 1.767 0 0 0-.1.15c-.134.138-.286.25-.415.393A15.329 15.329 0 0 0 .041 22.773a1.641 1.641 0 0 0-.041.2c0 .041.02.073.022.112A14.931 14.931 0 0 0 4.4 33.679c.034.039.046.087.083.124a1.468 1.468 0 0 0 .182.121 15.411 15.411 0 0 0 10.675 4.361c.123 0 .245-.019.368-.022 2.2 8.007 6.646 16.625 15.536 21.612a29.2 29.2 0 0 0 3.971 1.867h.012a18.641 18.641 0 0 0 4.885 1.121v25.615h-10.53a1.7 1.7 0 1 0 0 3.4h24.463a1.7 1.7 0 0 0 0-3.4H43.517V62.865a18.653 18.653 0 0 0 4.883-1.121h.009a29.353 29.353 0 0 0 3.968-1.865C61.6 54.7 66.023 45.636 68.14 37.387a1.674 1.674 0 0 0 .286-1.126A62.95 62.95 0 0 0 70.016 23v-.022a1.588 1.588 0 0 0-.058-.284 1.651 1.651 0 0 0-.073-.369 1.534 1.534 0 0 0-.15-.226 1.737 1.737 0 0 0-.211-.316 1.845 1.845 0 0 0-.223-.153 1.7 1.7 0 0 0-.315-.213 1.869 1.869 0 0 0-.3-.065 1.591 1.591 0 0 0-.349-.075H53.594L61.028 3.4h11.1a1.7 1.7 0 0 0 0-3.4" style="fill:#fff"/>
                <path data-name="Path 14910" d="M72.126 0H59.893a1.7 1.7 0 0 0-.65.131 1.745 1.745 0 0 0-.313.206 1.576 1.576 0 0 0-.23.156 1.69 1.69 0 0 0-.373.55v.005l-8.419 20.226H30.5a15.423 15.423 0 0 0-4.235-8.95 1.519 1.519 0 0 0-.117-.177 1.617 1.617 0 0 0-.242-.162 15.116 15.116 0 0 0-4.979-3.263 15.124 15.124 0 0 0-5.372-1.012 1.554 1.554 0 0 0-.238-.048 1.635 1.635 0 0 0-.257.051 15.345 15.345 0 0 0-10.369 4.3 1.517 1.517 0 0 0-.2.133 1.767 1.767 0 0 0-.1.15c-.133.138-.286.25-.415.393A15.329 15.329 0 0 0 .041 22.773a1.641 1.641 0 0 0-.041.2c0 .041.02.073.024.112A14.912 14.912 0 0 0 4.4 33.679c.032.039.046.087.082.124a1.533 1.533 0 0 0 .182.121 15.414 15.414 0 0 0 10.675 4.361c.123 0 .247-.019.368-.022 2.2 8.007 6.646 16.625 15.536 21.612a29.2 29.2 0 0 0 3.971 1.867h.012a18.656 18.656 0 0 0 4.885 1.121v25.615H29.582a1.7 1.7 0 1 0 0 3.4h24.463a1.7 1.7 0 0 0 0-3.4H43.517V62.865a18.681 18.681 0 0 0 4.888-1.121h.007a29.353 29.353 0 0 0 3.968-1.865C61.6 54.7 66.023 45.636 68.14 37.387a1.685 1.685 0 0 0 .288-1.126A63.042 63.042 0 0 0 70.016 23v-.022a1.749 1.749 0 0 0-.056-.284 1.755 1.755 0 0 0-.075-.369 1.671 1.671 0 0 0-.148-.226 1.838 1.838 0 0 0-.213-.316 1.845 1.845 0 0 0-.223-.153 1.649 1.649 0 0 0-.315-.213 1.889 1.889 0 0 0-.3-.065 1.628 1.628 0 0 0-.351-.075H53.594L61.028 3.4h11.1a1.7 1.7 0 0 0 0-3.4M50.715 56.91a26.442 26.442 0 0 1-3.508 1.65 15.288 15.288 0 0 1-5.387.98h-.007a15.277 15.277 0 0 1-5.39-.982 26.223 26.223 0 0 1-3.507-1.65c-13.09-7.349-15.5-23.87-15.849-32.231h5.057a1.7 1.7 0 1 0 0-3.4h-6.833a1.681 1.681 0 0 0-.318.068 1.881 1.881 0 0 0-.332.071 1.628 1.628 0 0 0-.238.162 1.618 1.618 0 0 0-.3.208 1.676 1.676 0 0 0-.168.248 1.67 1.67 0 0 0-.192.293 1.736 1.736 0 0 0-.087.436 1.52 1.52 0 0 0-.044.216v.022A63.91 63.91 0 0 0 14.9 34.872 12.02 12.02 0 0 1 8.193 32.5l3.507-3.51a1.7 1.7 0 0 0-2.4-2.406L5.785 30.1a11.313 11.313 0 0 1-2.239-5.421h6.663a1.7 1.7 0 0 0 0-3.4H3.544A11.889 11.889 0 0 1 5.8 15.866l3.5 3.5a1.7 1.7 0 1 0 2.4-2.406l-3.5-3.5a11.964 11.964 0 0 1 5.409-2.231v6.644a1.7 1.7 0 0 0 3.4 0V11.22a11.736 11.736 0 0 1 2.661.669 11.7 11.7 0 0 1 2.751 1.569l-3.505 3.5a1.7 1.7 0 1 0 2.406 2.406l3.495-3.493a11.917 11.917 0 0 1 2.4 7.1 1.7 1.7 0 0 0 1.7 1.7h19.577L43.98 35.527a92.417 92.417 0 0 1-6.313-.8A61.936 61.936 0 0 0 23.62 34a1.7 1.7 0 1 0 .209 3.4 58.927 58.927 0 0 1 13.28.684h.029c1.822.3 3.65.531 5.477.723L38.6 48.464a1.7 1.7 0 0 0 .917 2.224 1.658 1.658 0 0 0 .652.131 1.7 1.7 0 0 0 1.572-1.048l4.436-10.663c1.964.128 3.929.211 5.9.211a91.086 91.086 0 0 0 12.239-.842C62.2 45.459 58.225 52.694 50.715 56.91m15.849-32.233A59.228 59.228 0 0 1 65.257 34.9a87.627 87.627 0 0 1-17.7.885l4.621-11.109z" style="fill:#f51355"/>
            </g>
        </g>
    </g>
</svg>
