<svg xmlns="http://www.w3.org/2000/svg" width="35.295" height="35.381" viewBox="0 0 35.295 35.381">
    <g data-name="Group 27684">
        <path data-name="Path 13506" d="m0 308.352 2.537-9.464a17.512 17.512 0 1 1 6.976 6.912zm9.986-6.1.6.357a14.217 14.217 0 1 0-4.865-4.821l.368.6-1.416 5.284z" transform="translate(0 -272.971)" style="fill:#00d95f"/>
        <path data-name="Path 13507" d="M24.32 292.876a2.938 2.938 0 0 0-2.5-.564c-.65.266-1.065 1.284-1.486 1.8a.622.622 0 0 1-.806.175 11.338 11.338 0 0 1-5.657-4.846.693.693 0 0 1 .088-.947 3.837 3.837 0 0 0 1.028-1.668 3.648 3.648 0 0 0-.46-1.975 4.673 4.673 0 0 0-1.458-2.2 2 2 0 0 0-2.169.322 4.406 4.406 0 0 0-1.527 3.489 4.948 4.948 0 0 0 .137 1.107 9.146 9.146 0 0 0 1.063 2.448 19.442 19.442 0 0 0 1.108 1.687 17.136 17.136 0 0 0 4.81 4.465 14.541 14.541 0 0 0 3 1.426 6.657 6.657 0 0 0 3.491.552 4.23 4.23 0 0 0 3.166-2.355 2.051 2.051 0 0 0 .147-1.2c-.181-.828-1.3-1.32-1.971-1.72" transform="translate(0 -272.971)" style="fill-rule:evenodd;fill:#00d95f"/>
    </g>
</svg>
