<svg data-name="Group 9241" xmlns="http://www.w3.org/2000/svg" width="27" height="27" viewBox="0 0 27 27">
    <path data-name="Path 2437" d="m251.2-542.479-3.144 2.359a1.3 1.3 0 0 1-.785.262 1.307 1.307 0 0 1-1.049-.524 1.309 1.309 0 0 1 .262-1.834l5.239-3.929a1.309 1.309 0 0 1 1.539-.024l5.239 3.686a1.309 1.309 0 0 1 .318 1.825 1.31 1.31 0 0 1-1.825.318l-3.18-2.239v7.6a1.309 1.309 0 0 1-1.31 1.31 1.309 1.309 0 0 1-1.31-1.31z" transform="translate(-239.141 553.567)" style="fill:#fff"/>
    <g data-name="Ellipse 277" style="stroke:#fff;stroke-width:2.5px;fill:none">
        <circle cx="13.5" cy="13.5" r="13.5" style="stroke:none"/>
        <circle cx="13.5" cy="13.5" r="12.25" style="fill:none"/>
    </g>
</svg>
