<svg xmlns="http://www.w3.org/2000/svg" width="191.695" height="136.247" viewBox="0 0 191.695 136.247">
    <g data-name="Group 29634">
        <g data-name="Group 29632">
            <path data-name="Path 15087" d="M2766.256 298.261a93.951 93.951 0 0 0-69.975 31.113 7.18 7.18 0 1 0 10.7 9.579 79.884 79.884 0 0 1 118.55 0 7.179 7.179 0 1 0 10.7-9.579 93.939 93.939 0 0 0-69.971-31.113" transform="rotate(180 1432.302 217.254)" style="fill:#e0c3dd"/>
            <path data-name="Path 15088" d="M2897.553 170.435a7.179 7.179 0 0 0-7.181 7.18 21.541 21.541 0 1 1-43.081 0 7.181 7.181 0 0 0-14.362 0 35.9 35.9 0 1 0 71.8 0 7.177 7.177 0 0 0-7.18-7.18" transform="rotate(180 1454.867 110.259)" style="fill:#e0c3dd"/>
            <path data-name="Path 15089" d="M2734.3 177.615a7.181 7.181 0 0 0-14.362 0 21.542 21.542 0 0 1-43.084 0 7.181 7.181 0 0 0-14.361 0 35.9 35.9 0 0 0 71.807 0" transform="rotate(180 1427.094 110.259)" style="fill:#e0c3dd"/>
        </g>
        <g data-name="Group 29633">
            <path data-name="Path 15087" d="M2766.256 298.261a93.951 93.951 0 0 0-69.975 31.113 7.18 7.18 0 1 0 10.7 9.579 79.884 79.884 0 0 1 118.55 0 7.179 7.179 0 1 0 10.7-9.579 93.939 93.939 0 0 0-69.971-31.113" transform="rotate(180 1429.8 213.755)" style="fill:#641856"/>
            <path data-name="Path 15088" d="M2897.553 170.435a7.179 7.179 0 0 0-7.181 7.18 21.541 21.541 0 1 1-43.081 0 7.181 7.181 0 0 0-14.362 0 35.9 35.9 0 1 0 71.8 0 7.177 7.177 0 0 0-7.18-7.18" transform="rotate(180 1452.366 106.759)" style="fill:#641856"/>
            <path data-name="Path 15089" d="M2734.3 177.615a7.181 7.181 0 0 0-14.362 0 21.542 21.542 0 0 1-43.084 0 7.181 7.181 0 0 0-14.361 0 35.9 35.9 0 0 0 71.807 0" transform="rotate(180 1424.594 106.759)" style="fill:#641856"/>
        </g>
    </g>
</svg>
