<svg xmlns="http://www.w3.org/2000/svg" width="191.695" height="136.248" viewBox="0 0 191.695 136.248">
    <g data-name="Group 29636">
        <g data-name="Group 29623">
            <path data-name="Path 15087" d="M2766.256 298.261a93.951 93.951 0 0 0-69.975 31.113 7.18 7.18 0 1 0 10.7 9.579 79.884 79.884 0 0 1 118.55 0 7.179 7.179 0 1 0 10.7-9.579 93.939 93.939 0 0 0-69.971-31.113" transform="translate(-2667.909 -205.096)" style="fill:#e0c3dd"/>
            <path data-name="Path 15088" d="M2897.553 170.435a7.179 7.179 0 0 0-7.181 7.18 21.541 21.541 0 1 1-43.081 0 7.181 7.181 0 0 0-14.362 0 35.9 35.9 0 1 0 71.8 0 7.177 7.177 0 0 0-7.18-7.18" transform="translate(-2713.037 -163.435)" style="fill:#e0c3dd"/>
            <path data-name="Path 15089" d="M2734.3 177.615a7.181 7.181 0 0 0-14.362 0 21.542 21.542 0 0 1-43.084 0 7.181 7.181 0 0 0-14.361 0 35.9 35.9 0 0 0 71.807 0" transform="translate(-2657.492 -163.435)" style="fill:#e0c3dd"/>
        </g>
        <g data-name="Group 29624">
            <path data-name="Path 15087" d="M2766.256 298.261a93.951 93.951 0 0 0-69.975 31.113 7.18 7.18 0 1 0 10.7 9.579 79.884 79.884 0 0 1 118.55 0 7.179 7.179 0 1 0 10.7-9.579 93.939 93.939 0 0 0-69.971-31.113" transform="translate(-2672.91 -212.096)" style="fill:#641856"/>
            <path data-name="Path 15088" d="M2897.553 170.435a7.179 7.179 0 0 0-7.181 7.18 21.541 21.541 0 1 1-43.081 0 7.181 7.181 0 0 0-14.362 0 35.9 35.9 0 1 0 71.8 0 7.177 7.177 0 0 0-7.18-7.18" transform="translate(-2718.038 -170.435)" style="fill:#641856"/>
            <path data-name="Path 15089" d="M2734.3 177.615a7.181 7.181 0 0 0-14.362 0 21.542 21.542 0 0 1-43.084 0 7.181 7.181 0 0 0-14.361 0 35.9 35.9 0 0 0 71.807 0" transform="translate(-2662.493 -170.435)" style="fill:#641856"/>
        </g>
    </g>
</svg>
