<svg data-name="Group 29597" xmlns="http://www.w3.org/2000/svg" width="166.001" height="161.653" viewBox="0 0 166.001 161.653">
    <g data-name="Group 29537">
        <path data-name="Path 15068" d="M396.481 201.3v-28.879a7.22 7.22 0 1 1 14.44 0V201.3a7.22 7.22 0 0 1-14.44 0" transform="translate(-281.098 -165.201)" style="fill-rule:evenodd;fill:#641856"/>
        <path data-name="Path 15069" d="M198.24 201.3v-28.879a7.22 7.22 0 0 1 14.44 0V201.3a7.22 7.22 0 0 1-14.44 0" transform="translate(-169.494 -165.201)" style="fill-rule:evenodd;fill:#641856"/>
    </g>
    <g data-name="Group 29536">
        <path data-name="Path 15071" d="M132.154 337.634a7.207 7.207 0 0 1 8.635-7.075 359.394 359.394 0 0 0 141.566 0 7.208 7.208 0 0 1 8.635 7.075c0 34.078-33.962 72.2-79.418 72.2s-79.418-38.123-79.418-72.201z" transform="translate(-124.989 -248.178)" style="fill:rgba(100,24,86,.2);fill-rule:evenodd"/>
        <g data-name="Group 29535">
            <path data-name="Path 15070" d="M132.154 337.634a7.207 7.207 0 0 1 8.635-7.075 359.394 359.394 0 0 0 141.566 0 7.208 7.208 0 0 1 8.635 7.075c0 34.078-33.962 72.2-79.418 72.2s-79.418-38.123-79.418-72.201z" transform="translate(-132.154 -257.673)" style="fill:#fff;fill-rule:evenodd"/>
            <path data-name="Path 15067" d="M211.572 395.392c35.507 0 58.914-26.164 63.953-48.878a372.321 372.321 0 0 1-127.906 0c5.039 22.713 28.461 48.878 63.953 48.878m-79.418-57.758a7.207 7.207 0 0 1 8.635-7.075 359.394 359.394 0 0 0 141.566 0 7.208 7.208 0 0 1 8.635 7.075c0 34.078-33.962 72.2-79.418 72.2s-79.418-38.123-79.418-72.201z" transform="translate(-132.154 -257.673)" style="fill-rule:evenodd;fill:#641856"/>
        </g>
    </g>
</svg>
