<svg xmlns="http://www.w3.org/2000/svg" width="179.798" height="133.755" viewBox="0 0 179.798 133.755">
    <g data-name="Group 29631">
        <g data-name="Group 29629">
            <path data-name="Path 15090" d="M802.515 215.874a6.875 6.875 0 0 0 9.722-9.722l-22.648-22.642 22.641-22.634a6.875 6.875 0 0 0-9.723-9.722l-22.64 22.646-22.641-22.641a6.875 6.875 0 0 0-9.723 9.722l22.642 22.634-22.645 22.637a6.875 6.875 0 1 0 9.722 9.722l22.648-22.648z" transform="translate(-745.481 -139.139)" style="fill:#e0c3dd"/>
            <path data-name="Path 15091" d="m960.045 183.51 22.642-22.634a6.875 6.875 0 1 0-9.722-9.722L950.323 173.8l-22.642-22.641a6.874 6.874 0 0 0-9.721 9.722l22.64 22.629-22.649 22.641a6.875 6.875 0 1 0 9.723 9.722l22.648-22.648 22.648 22.648a6.875 6.875 0 0 0 9.722-9.722z" transform="translate(-805.913 -139.139)" style="fill:#e0c3dd"/>
            <path data-name="Path 15092" d="M905 319.565H794.989a6.875 6.875 0 1 0 0 13.751H905a6.875 6.875 0 1 0 0-13.751" transform="translate(-760.596 -199.561)" style="fill:#e0c3dd"/>
        </g>
        <g data-name="Group 29630">
            <path data-name="Path 15090" d="M802.515 215.874a6.875 6.875 0 0 0 9.722-9.722l-22.648-22.642 22.641-22.634a6.875 6.875 0 0 0-9.723-9.722l-22.64 22.646-22.641-22.641a6.875 6.875 0 0 0-9.723 9.722l22.642 22.634-22.645 22.637a6.875 6.875 0 1 0 9.722 9.722l22.648-22.648z" transform="translate(-744.481 -149.139)" style="fill:#641856"/>
            <path data-name="Path 15091" d="m960.045 183.51 22.642-22.634a6.875 6.875 0 1 0-9.722-9.722L950.323 173.8l-22.642-22.641a6.874 6.874 0 0 0-9.721 9.722l22.64 22.629-22.649 22.641a6.875 6.875 0 1 0 9.723 9.722l22.648-22.648 22.648 22.648a6.875 6.875 0 0 0 9.722-9.722z" transform="translate(-804.913 -149.139)" style="fill:#641856"/>
            <path data-name="Path 15092" d="M905 319.565H794.989a6.875 6.875 0 1 0 0 13.751H905a6.875 6.875 0 1 0 0-13.751" transform="translate(-759.596 -209.561)" style="fill:#641856"/>
        </g>
    </g>
</svg>
