<svg xmlns="http://www.w3.org/2000/svg" width="162.114" height="120.344" viewBox="0 0 162.114 120.344">
    <g data-name="Group 29635">
        <g data-name="Group 29626">
            <path data-name="Path 13350" d="M2087.686 213.179a21.441 21.441 0 1 0-21.441 21.44 21.468 21.468 0 0 0 21.441-21.44m-28.587 0a7.146 7.146 0 1 1 7.146 7.146 7.158 7.158 0 0 1-7.146-7.146" transform="translate(-2039.916 -185.739)" style="fill:#e0c3dd"/>
            <path data-name="Path 13351" d="M2236.682 191.739a21.44 21.44 0 1 0 21.439 21.44 21.467 21.467 0 0 0-21.439-21.44m0 28.587a7.147 7.147 0 1 1 7.143-7.146 7.156 7.156 0 0 1-7.143 7.146" transform="translate(-2096.007 -185.739)" style="fill:#e0c3dd"/>
            <path data-name="Path 13354" d="M2126.925 298.261a93.5 93.5 0 0 0-69.645 30.966 7.147 7.147 0 0 0 10.649 9.534 79.507 79.507 0 0 1 117.991 0 7.146 7.146 0 1 0 10.648-9.534 93.506 93.506 0 0 0-69.643-30.966" transform="translate(-2043.427 -220.797)" style="fill:#e0c3dd"/>
        </g>
        <g data-name="Group 29627">
            <path data-name="Path 13350" d="M2087.686 213.179a21.441 21.441 0 1 0-21.441 21.44 21.468 21.468 0 0 0 21.441-21.44m-28.587 0a7.146 7.146 0 1 1 7.146 7.146 7.158 7.158 0 0 1-7.146-7.146" transform="translate(-2044.804 -191.739)" style="fill:#641856"/>
            <path data-name="Path 13351" d="M2236.682 191.739a21.44 21.44 0 1 0 21.439 21.44 21.467 21.467 0 0 0-21.439-21.44m0 28.587a7.147 7.147 0 1 1 7.143-7.146 7.156 7.156 0 0 1-7.143 7.146" transform="translate(-2100.895 -191.739)" style="fill:#641856"/>
            <path data-name="Path 13354" d="M2126.925 298.261a93.5 93.5 0 0 0-69.645 30.966 7.147 7.147 0 0 0 10.649 9.534 79.507 79.507 0 0 1 117.991 0 7.146 7.146 0 1 0 10.648-9.534 93.506 93.506 0 0 0-69.643-30.966" transform="translate(-2048.315 -226.797)" style="fill:#641856"/>
        </g>
    </g>
</svg>
