<svg data-name="Group 29327" xmlns="http://www.w3.org/2000/svg" width="137.6" height="32.709" viewBox="0 0 137.6 32.709">
    <defs>
        <clipPath id="qkqizv0lfa">
            <path data-name="Rectangle 4980" style="fill:#fff" d="M0 0h137.6v32.709H0z"/>
        </clipPath>
    </defs>
    <g data-name="Mask Group 29246" style="clip-path:url(#qkqizv0lfa)">
        <path data-name="Path 15011" d="M162.607 0a8.579 8.579 0 0 0-6.321 2.374 8.523 8.523 0 0 0-2.4 6.3v15.357a8.459 8.459 0 0 0 2.4 6.3 9.63 9.63 0 0 0 12.663 0 8.427 8.427 0 0 0 2.42-6.3V8.674a8.436 8.436 0 0 0-2.42-6.3A8.644 8.644 0 0 0 162.607 0m3.486 24.247a4.035 4.035 0 0 1-.959 2.8 3.2 3.2 0 0 1-2.49 1.075 3.133 3.133 0 0 1-2.49-1.075 4.1 4.1 0 0 1-.934-2.8V8.446a4.122 4.122 0 0 1 .934-2.806 3.151 3.151 0 0 1 2.49-1.075 3.216 3.216 0 0 1 2.49 1.075 4.05 4.05 0 0 1 .959 2.806z" transform="translate(-90.015)" style="fill:#fff"/>
        <path data-name="Path 15012" d="M211.777 0a8.579 8.579 0 0 0-6.321 2.374 8.523 8.523 0 0 0-2.4 6.3v15.357a8.459 8.459 0 0 0 2.4 6.3 9.63 9.63 0 0 0 12.663 0 8.428 8.428 0 0 0 2.42-6.3V8.674a8.436 8.436 0 0 0-2.42-6.3A8.644 8.644 0 0 0 211.777 0m3.47 24.247a4.035 4.035 0 0 1-.959 2.8 3.2 3.2 0 0 1-2.511 1.075 3.133 3.133 0 0 1-2.49-1.075 4.1 4.1 0 0 1-.934-2.8V8.446a4.122 4.122 0 0 1 .934-2.806 3.151 3.151 0 0 1 2.49-1.075 3.218 3.218 0 0 1 2.511 1.075 4.05 4.05 0 0 1 .959 2.806z" transform="translate(-118.778)" style="fill:#fff"/>
        <path data-name="Path 15013" d="M265.885.88h-14.974a.546.546 0 0 0-.548.552V4.9a.527.527 0 0 0 .158.386.518.518 0 0 0 .39.158h9.679a.149.149 0 0 1 .137.1.2.2 0 0 1 0 .178L250.5 27.953a1.739 1.739 0 0 0-.137.685v3.652a.544.544 0 0 0 .535.552h14.987a.553.553 0 0 0 .548-.552v-3.47a.544.544 0 0 0-.162-.39.532.532 0 0 0-.386-.158h-9.679a.137.137 0 0 1-.137-.091.174.174 0 0 1 0-.178L266.3 5.769a1.967 1.967 0 0 0 .137-.689V1.432a.552.552 0 0 0-.552-.552z" transform="translate(-146.452 -.515)" style="fill:#fff"/>
        <path data-name="Path 15014" d="M308.746 5.769a1.978 1.978 0 0 0 .137-.689V1.432a.544.544 0 0 0-.535-.552h-14.983a.524.524 0 0 0-.39.162.513.513 0 0 0-.162.39V4.9a.546.546 0 0 0 .552.544h9.675a.141.141 0 0 1 .137.1.174.174 0 0 1 0 .178L292.95 27.953a1.813 1.813 0 0 0-.137.685v3.652a.531.531 0 0 0 .162.39.54.54 0 0 0 .39.162h14.971a.543.543 0 0 0 .548-.54V28.82a.557.557 0 0 0-.158-.39.543.543 0 0 0-.39-.158h-9.679a.141.141 0 0 1-.137-.091.2.2 0 0 1 0-.178z" transform="translate(-171.283 -.515)" style="fill:#fff"/>
        <path data-name="Path 15015" d="M14.017 17.568a53.294 53.294 0 0 0-4.2-3.354A22.111 22.111 0 0 1 6.14 11.06a4.241 4.241 0 0 1-.934-2.781 3.967 3.967 0 0 1 .867-2.719 2.855 2.855 0 0 1 2.237-.984 2.905 2.905 0 0 1 2.35 1.076 4.309 4.309 0 0 1 .892 2.855V9.69a.544.544 0 0 0 .535.552h4.121a.559.559 0 0 0 .39-.162.543.543 0 0 0 .158-.39v-1.1a8.449 8.449 0 0 0-2.328-6.226A8.253 8.253 0 0 0 8.311.02a8.258 8.258 0 0 0-6.027 2.237A8.016 8.016 0 0 0 0 8.288a8.946 8.946 0 0 0 .955 4.167 10.955 10.955 0 0 0 2.333 3.08 40.144 40.144 0 0 0 3.674 2.905q2.013 1.469 2.905 2.237a6.416 6.416 0 0 1 1.415 1.66 4.026 4.026 0 0 1 .5 2.075 3.948 3.948 0 0 1-.913 2.714 2.992 2.992 0 0 1-2.328 1.025 2.834 2.834 0 0 1-2.3-1.092 4.415 4.415 0 0 1-.892-2.88v-.913a.527.527 0 0 0-.158-.386.539.539 0 0 0-.39-.158H.649a.54.54 0 0 0-.548.531v1.2a8 8 0 0 0 2.328 5.977 8.377 8.377 0 0 0 6.118 2.287 8.215 8.215 0 0 0 6.118-2.353 8.489 8.489 0 0 0 2.328-6.226 8.15 8.15 0 0 0-.776-3.694 9.9 9.9 0 0 0-2.2-2.88" transform="translate(0 -.012)" style="fill:#fff"/>
        <path data-name="Path 15016" d="M113.066 19.9h4.2a.511.511 0 0 1 .382.162.5.5 0 0 1 .162.39v22.962a.513.513 0 0 1-.162.39.528.528 0 0 1-.382.162h-4.2a.544.544 0 0 1-.386-.162.531.531 0 0 1-.162-.39V29.763q0-.187-.087-.187c-.062 0-.125.046-.183.137l-3.972 7.213c-.154.245-.295.365-.415.365s-.257-.12-.415-.365l-3.976-7.213c-.058-.091-.12-.137-.183-.137s-.091.062-.091.187v13.651a.544.544 0 0 1-.535.552h-4.2a.544.544 0 0 1-.544-.544V20.45a.544.544 0 0 1 .535-.552h4.192a.76.76 0 0 1 .685.369l4.433 7.8c.087.125.178.125.27 0l4.337-7.8a.76.76 0 0 1 .7-.369" transform="translate(-57.275 -11.638)" style="fill:#fff"/>
        <path data-name="Path 15017" d="M97.892 5.167V1.785c0-.6.34-.9 1.017-.9h3.412c.677 0 1.017.3 1.017.9v3.382a.83.83 0 0 1-.934.938h-3.579a.83.83 0 0 1-.934-.711.818.818 0 0 1 0-.227" transform="translate(-57.258 -.515)" style="fill:#fff"/>
        <path data-name="Path 15018" d="M132.732 5.167V1.785c0-.6.34-.9 1.017-.9h3.412c.677 0 1.017.3 1.017.9v3.382a.83.83 0 0 1-.934.938h-3.578a.83.83 0 0 1-.934-.711.819.819 0 0 1 0-.227" transform="translate(-77.638 -.515)" style="fill:#fff"/>
        <path data-name="Path 15019" d="M64.659 1.042a.514.514 0 0 0-.39-.162h-4.2a.524.524 0 0 0-.39.162.527.527 0 0 0-.158.39V8.55a.2.2 0 0 1-.17.225.2.2 0 0 1-.058 0h-5.782c-.145 0-.212-.079-.216-.22V1.432a.552.552 0 0 0-.552-.552h-4.212a.544.544 0 0 0-.39.162.527.527 0 0 0-.158.39V32.29a.543.543 0 0 0 .158.39.559.559 0 0 0 .39.162h4.2a.552.552 0 0 0 .552-.552V13.613a.194.194 0 0 1 .216-.22h5.811a.2.2 0 0 1 .228.176.211.211 0 0 1 0 .049v18.676a.544.544 0 0 0 .535.552h4.209a.546.546 0 0 0 .548-.552V1.432a.515.515 0 0 0-.17-.39" transform="translate(-28.068 -.514)" style="fill:#fff"/>
    </g>
</svg>
