<svg xmlns="http://www.w3.org/2000/svg" width="988" height="1011.413" viewBox="0 0 988 1011.413">
    <g data-name="Group 29554">
        <path data-name="Path 15055" d="M1.037 546.854V115.406C1.037 38.645 44.448 0 130.738 0h435.153c86.288 0 129.7 38.645 129.7 115.406v431.449A105.835 105.835 0 0 1 576.481 666.5H120.149A105.885 105.885 0 0 1 .986 575.865a104.5 104.5 0 0 1 .051-29.01" transform="rotate(14.98 -621.342 748.574)" style="fill:#f51355"/>
        <path data-name="Path 15054" d="M1.114 587.323V123.946C1.114 41.505 47.737 0 140.413 0h467.355c92.674 0 139.3 41.5 139.3 123.946v463.377a113.666 113.666 0 0 1-127.927 128.494H129.04A113.72 113.72 0 0 1 1.059 618.48a112.23 112.23 0 0 1 .055-31.157" transform="rotate(-19 751.4 -19.18)" style="fill:#ffe5ec"/>
    </g>
</svg>
