<svg xmlns="http://www.w3.org/2000/svg" width="134.351" height="134.976" viewBox="0 0 134.351 134.976">
    <g data-name="Group 29333">
        <g data-name="Group 8811" transform="translate(5.262 6.588)">
            <path data-name="Path 4288" d="m1222.739 556.87-.4-.52.6-.278a68.427 68.427 0 0 1 14.511-4.919 2 2 0 1 0-.83-3.919 73.113 73.113 0 0 0-16.5 5.739l-.369.177-.261-.311c-3.151-3.756-6.677-7.591-10.481-11.4-4.059-4.058-8.126-7.779-12.088-11.059l-.4-.328.317-.4a56.69 56.69 0 0 0 8.178-14.211 74.422 74.422 0 0 0 4.882-27.623 2 2 0 0 0-4.008 0c0 15.912-4.1 29.147-12.181 39.341l-.318.4-.411-.313a93.39 93.39 0 0 0-4.351-3.139c-7.253-4.892-11.5-6.092-13.793-3.89l-.084.078a3.7 3.7 0 0 0-1.01 2.029l-.034.119-37.308 88.987a2 2 0 0 0 .432 2.192 2.029 2.029 0 0 0 2.192.43l89.04-37.339.062-.011a3.605 3.605 0 0 0 1.9-.9l.2-.185c2.211-2.294 1.011-6.547-3.88-13.8a99.327 99.327 0 0 0-3.607-4.947z" transform="translate(-1136.239 -485.816)" style="fill:#e6c6cf"/>
            <path data-name="Path 4289" d="M1203.628 516.777a2.053 2.053 0 0 0 2.835 0c5.749-5.749 15.035-8.382 21.811-8.929a2 2 0 0 0 1.835-2.158 2.017 2.017 0 0 0-2.159-1.835c-7.485.6-17.8 3.571-24.322 10.089a2.009 2.009 0 0 0 0 2.833z" transform="translate(-1109.372 -478.563)" style="fill:#e6c6cf"/>
            <path data-name="Path 4290" d="M1191.884 520.234h3.053v3.053a2 2 0 1 0 4.007 0v-3.053H1202a2 2 0 1 0 0-4.006h-3.053v-3.054a2 2 0 1 0-4.007 0v3.054h-3.053a2 2 0 1 0 0 4.006z" transform="translate(-1114.666 -475.619)" style="fill:#e6c6cf"/>
            <path data-name="Path 4291" d="M1216.631 558.455h-3.051V555.4a2 2 0 0 0-4.009 0v3.053h-3.051a2 2 0 1 0 0 4.007h3.051v3.053a2 2 0 0 0 4.009 0v-3.053h3.051a2 2 0 0 0 0-4.007z" transform="translate(-1108.78 -458.635)" style="fill:#e6c6cf"/>
            <path data-name="Path 4292" d="M1150.443 503.48h3.051v3.053a2 2 0 0 0 4.009 0v-3.053h3.051a2 2 0 1 0 0-4.007h-3.054v-3.053a2 2 0 0 0-4.009 0v3.053h-3.051a2 2 0 1 0 0 4.007z" transform="translate(-1131.333 -482.357)" style="fill:#e6c6cf"/>
            <circle data-name="Ellipse 271" cx="7.06" cy="7.06" r="7.06" transform="translate(106.815 43.894)" style="fill:#e6c6cf"/>
            <circle data-name="Ellipse 272" cx="7.06" cy="7.06" r="7.06" transform="translate(42.601 9.006)" style="fill:#e6c6cf"/>
            <circle data-name="Ellipse 273" cx="7.06" cy="7.06" r="7.06" transform="translate(92.133 .526)" style="fill:#e6c6cf"/>
            <path data-name="Path 4293" d="M1215.627 537.032a2 2 0 1 0 2.005 2 2.006 2.006 0 0 0-2.005-2z" transform="translate(-1105.117 -465.218)" style="fill:#e6c6cf"/>
            <path data-name="Path 4294" d="M1227.447 503.07a2 2 0 1 0 2.005 2 2.006 2.006 0 0 0-2.005-2z" transform="translate(-1100.363 -478.877)" style="fill:#e6c6cf"/>
            <path data-name="Path 4295" d="M1220.2 550.555a2 2 0 1 0 2 2 2.006 2.006 0 0 0-2-2z" transform="translate(-1103.276 -459.779)" style="fill:#e6c6cf"/>
            <path data-name="Path 4296" d="M1197.026 504.032a2.528 2.528 0 1 0-2.528-2.528 2.533 2.533 0 0 0 2.528 2.528z" transform="translate(-1112.809 -480.523)" style="fill:#e6c6cf"/>
            <path data-name="Path 4297" d="M1161.688 492.676a2.528 2.528 0 1 0-2.528-2.528 2.533 2.533 0 0 0 2.528 2.528z" transform="translate(-1127.021 -485.09)" style="fill:#e6c6cf"/>
        </g>
        <g data-name="Group 8812" transform="translate(.28 .25)">
            <path data-name="Path 4298" d="m1219.188 552.349-.4-.52.6-.276a68.436 68.436 0 0 1 14.51-4.919 2 2 0 0 0-.83-3.921 73.143 73.143 0 0 0-16.5 5.741l-.367.177-.262-.313c-3.149-3.756-6.676-7.59-10.481-11.4-4.059-4.059-8.125-7.781-12.088-11.06l-.4-.327.318-.4a56.709 56.709 0 0 0 8.176-14.21 74.427 74.427 0 0 0 4.884-27.623 2 2 0 0 0-4.009 0c0 15.911-4.1 29.147-12.179 39.34l-.32.4-.409-.313a92.598 92.598 0 0 0-4.351-3.138c-7.255-4.894-11.507-6.094-13.793-3.891l-.084.078a3.692 3.692 0 0 0-1.008 2.029l-.035.119-37.315 88.982a2 2 0 0 0 .432 2.192 2.028 2.028 0 0 0 2.192.432l89.042-37.34.062-.01a3.629 3.629 0 0 0 1.9-.9l.2-.185c2.211-2.294 1.012-6.548-3.88-13.8a101.593 101.593 0 0 0-3.605-4.944z" transform="translate(-1132.686 -481.296)" style="fill:#fff"/>
            <path data-name="Path 4299" d="M1200.076 512.257a2.053 2.053 0 0 0 2.834 0c5.749-5.75 15.037-8.382 21.811-8.929a2.005 2.005 0 0 0 1.835-2.158 2.019 2.019 0 0 0-2.159-1.837c-7.483.6-17.8 3.571-24.321 10.089a2.008 2.008 0 0 0 0 2.835z" transform="translate(-1105.819 -474.044)" style="fill:#fff"/>
            <path data-name="Path 4300" d="M1188.332 515.714h3.051v3.052a2 2 0 0 0 4.009 0v-3.052h3.051a2 2 0 0 0 0-4.007h-3.051v-3.054a2 2 0 0 0-4.009 0v3.054h-3.051a2 2 0 1 0 0 4.007z" transform="translate(-1111.113 -471.099)" style="fill:#fff"/>
            <path data-name="Path 4301" d="M1213.08 553.935h-3.052v-3.054a2 2 0 0 0-4.008 0v3.054h-3.052a2 2 0 1 0 0 4.008h3.052v3.051a2 2 0 1 0 4.008 0v-3.051h3.052a2 2 0 0 0 0-4.008z" transform="translate(-1105.227 -454.115)" style="fill:#fff"/>
            <path data-name="Path 4302" d="M1146.89 498.959h3.052v3.053a2 2 0 0 0 4.008 0v-3.053h3.05a2 2 0 0 0 0-4.006h-3.052V491.9a2 2 0 0 0-4.008 0v3.054h-3.052a2 2 0 1 0 0 4.006z" transform="translate(-1127.78 -477.838)" style="fill:#fff"/>
            <circle data-name="Ellipse 274" cx="7.06" cy="7.06" r="7.06" transform="translate(106.816 43.893)" style="fill:#fff"/>
            <circle data-name="Ellipse 275" cx="7.06" cy="7.06" r="7.06" transform="translate(42.602 9.005)" style="fill:#fff"/>
            <circle data-name="Ellipse 276" cx="7.06" cy="7.06" r="7.06" transform="translate(92.133 .525)" style="fill:#fff"/>
            <path data-name="Path 4303" d="M1212.073 532.512a2 2 0 1 0 2.005 2 2 2 0 0 0-2.005-2z" transform="translate(-1101.564 -460.698)" style="fill:#fff"/>
            <path data-name="Path 4304" d="M1223.895 498.55a2 2 0 1 0 2 2 2.005 2.005 0 0 0-2-2z" transform="translate(-1096.81 -474.357)" style="fill:#fff"/>
            <path data-name="Path 4305" d="M1216.651 546.034a2 2 0 1 0 2 2 2.006 2.006 0 0 0-2-2z" transform="translate(-1099.723 -455.26)" style="fill:#fff"/>
            <path data-name="Path 4306" d="M1193.473 499.511a2.528 2.528 0 1 0-2.528-2.528 2.533 2.533 0 0 0 2.528 2.528z" transform="translate(-1109.256 -476.004)" style="fill:#fff"/>
            <path data-name="Path 4307" d="M1158.135 488.155a2.528 2.528 0 1 0-2.528-2.528 2.533 2.533 0 0 0 2.528 2.528z" transform="translate(-1123.468 -480.571)" style="fill:#fff"/>
        </g>
        <g data-name="Group 8827">
            <g data-name="Group 8813">
                <path data-name="Path 4308" d="M1171.2 515.778a3.692 3.692 0 0 0-1.008 2.029l-.035.119-37.315 88.982a2 2 0 0 0 .432 2.192 2.028 2.028 0 0 0 2.192.432l89.042-37.34.062-.01a3.629 3.629 0 0 0 1.9-.9l.2-.185c2.211-2.294 1.012-6.548-3.88-13.8a92.285 92.285 0 0 0-3.6-4.948l-.4-.52.6-.276a68.469 68.469 0 0 1 14.511-4.919 2 2 0 0 0-.83-3.921 73.143 73.143 0 0 0-16.5 5.741l-.367.177-.261-.313c-3.151-3.756-6.677-7.59-10.483-11.4-4.059-4.059-8.125-7.781-12.088-11.06l-.4-.327.318-.4a56.709 56.709 0 0 0 8.176-14.21 74.427 74.427 0 0 0 4.884-27.623 2 2 0 0 0-4.009 0c0 15.911-4.1 29.147-12.179 39.34l-.32.4-.409-.313a92.598 92.598 0 0 0-4.351-3.138c-7.255-4.894-11.507-6.094-13.793-3.891l-.084.078zm-32.768 88.164 11.693-27.882.475 1.189c2.149 5.389 2.867 10.448 2.133 15.036a17.453 17.453 0 0 1-2.342 6.54l-.088.14zm17.387-7.291.293-1.045c1.411-5.016 1.893-13.294-3.812-24.244l-.114-.217 8.1-19.316.519.981c8.006 15.18 8.489 25.2 7.482 30.928-1.043 5.951-3.828 8.856-4.657 9.6l-.148.094zm14.574-6.112.458-1.158a25.1 25.1 0 0 0 1.283-4.407c2-10.2-1.284-22.849-9.754-37.607l-.129-.226 3.17-7.559.552.665a43.009 43.009 0 0 1 5.71 8.745 2.038 2.038 0 0 0 2.632 1.05 2.006 2.006 0 0 0 1.05-2.632 47.461 47.461 0 0 0-8.011-11.613l-.242-.248 4.735-11.292.522.958c.717 1.311 1.625 2.786 2.7 4.383a92.41 92.41 0 0 0 2.437 3.424 48.085 48.085 0 0 1 6.857 35.927c-1.854 9.832-5.792 16.8-7.153 18.649l-.087.116zm12.841-5.384.557-1.22a63.107 63.107 0 0 0 4.514-14.242 54 54 0 0 0-.477-23.021l-.472-1.927 1.363 1.441c1.2 1.272 2.443 2.546 3.684 3.787 3.742 3.742 7.517 7.22 11.222 10.334l.194.163-.007.254c-.37 12.195-6.059 17.791-7.195 18.789l-.143.09zm20.674-8.67.6-1.248a33.725 33.725 0 0 0 3.033-10.748l.108-.914.732.558a92.946 92.946 0 0 0 4.393 3.169c1.593 1.076 3.069 1.984 4.385 2.7l.958.522zm19.867-8.187-.812-.185c-1.183-.269-3.977-1.294-9.39-5.132a166.459 166.459 0 0 1-34.18-34.18c-3.839-5.418-4.863-8.21-5.132-9.392l-.185-.812.813.184c1.181.269 3.972 1.293 9.39 5.132a91.059 91.059 0 0 1 2.437 1.791l.473.358-.951.979a2.007 2.007 0 0 0 0 2.834 2.053 2.053 0 0 0 2.834 0c.315-.314.624-.634.931-.955l.337-.353.377.311c3.856 3.187 7.971 6.948 11.9 10.878 3.4 3.4 6.6 6.86 9.51 10.271l.415.488-.561.31q-.679.379-1.362.771a2.008 2.008 0 0 0-.733 2.737 2.059 2.059 0 0 0 2.737.733 86.43 86.43 0 0 1 2.119-1.182l.39-.21.272.348a101.756 101.756 0 0 1 3.055 4.072c3.841 5.421 4.863 8.211 5.129 9.392z" transform="translate(-1132.406 -481.046)" style="fill:#f51355;stroke:#fff;stroke-miterlimit:10;stroke-width:.5px"/>
            </g>
            <g data-name="Group 8814">
                <path data-name="Path 4309" d="M1163.857 532.254a2.007 2.007 0 0 0-1.866 2.733 2.044 2.044 0 0 0 2.535 1.179 2 2 0 0 0 1.23-2.553 3.543 3.543 0 0 0-.07-.175 2.009 2.009 0 0 0-1.828-1.183z" transform="translate(-1120.676 -460.552)" style="fill:#f51355;stroke:#fff;stroke-miterlimit:10;stroke-width:.5px"/>
            </g>
            <g data-name="Group 8815">
                <path data-name="Path 4310" d="M1200.076 512.257a2.053 2.053 0 0 0 2.834 0c5.749-5.75 15.037-8.382 21.811-8.929a2.005 2.005 0 0 0 1.835-2.158 2.019 2.019 0 0 0-2.159-1.837c-7.483.6-17.8 3.571-24.321 10.089a2.008 2.008 0 0 0 0 2.835z" transform="translate(-1105.539 -473.793)" style="fill:#f51355;stroke:#fff;stroke-miterlimit:10;stroke-width:.5px"/>
            </g>
            <g data-name="Group 8816">
                <path data-name="Path 4311" d="M1188.332 511.706a2 2 0 1 0 0 4.007h3.051v3.052a2 2 0 0 0 4.009 0v-3.052h3.051a2 2 0 0 0 0-4.007h-3.051v-3.054a2 2 0 0 0-4.009 0v3.054z" transform="translate(-1110.833 -470.849)" style="fill:#f51355;stroke:#fff;stroke-miterlimit:10;stroke-width:.5px"/>
            </g>
            <g data-name="Group 8817">
                <path data-name="Path 4312" d="M1202.967 553.935a2 2 0 1 0 0 4.008h3.052v3.051a2 2 0 1 0 4.008 0v-3.051h3.052a2 2 0 0 0 0-4.008h-3.052v-3.054a2 2 0 0 0-4.008 0v3.054z" transform="translate(-1104.947 -453.865)" style="fill:#f51355;stroke:#fff;stroke-miterlimit:10;stroke-width:.5px"/>
            </g>
            <g data-name="Group 8818">
                <path data-name="Path 4313" d="M1146.89 494.953a2 2 0 1 0 0 4.006h3.052v3.053a2 2 0 0 0 4.008 0v-3.053h3.05a2 2 0 0 0 0-4.006h-3.052V491.9a2 2 0 0 0-4.008 0v3.054z" transform="translate(-1127.5 -477.588)" style="fill:#f51355;stroke:#fff;stroke-miterlimit:10;stroke-width:.5px"/>
            </g>
            <g data-name="Group 8819">
                <path data-name="Path 4314" d="M1215.925 512.6a7.06 7.06 0 1 0 7.06 7.06 7.067 7.067 0 0 0-7.06-7.06zm0 10.111a3.052 3.052 0 1 1 3.051-3.051 3.054 3.054 0 0 1-3.051 3.051z" transform="translate(-1101.769 -468.456)" style="fill:#f51355;stroke:#fff;stroke-miterlimit:10;stroke-width:.5px"/>
            </g>
            <g data-name="Group 8820">
                <path data-name="Path 4315" d="M1170.129 487.718a7.06 7.06 0 1 0 7.06 7.06 7.068 7.068 0 0 0-7.06-7.06zm0 10.113a3.053 3.053 0 1 1 3.051-3.053 3.056 3.056 0 0 1-3.051 3.053z" transform="translate(-1120.187 -478.463)" style="fill:#f51355;stroke:#fff;stroke-miterlimit:10;stroke-width:.5px"/>
            </g>
            <g data-name="Group 8821">
                <path data-name="Path 4316" d="M1205.454 481.67a7.06 7.06 0 1 0 7.06 7.06 7.069 7.069 0 0 0-7.06-7.06zm0 10.112a3.053 3.053 0 1 1 3.051-3.053 3.056 3.056 0 0 1-3.051 3.053z" transform="translate(-1105.98 -480.896)" style="fill:#f51355;stroke:#fff;stroke-miterlimit:10;stroke-width:.5px"/>
            </g>
            <g data-name="Group 8822">
                <path data-name="Path 4317" d="M1212.073 532.512a2 2 0 1 0 2.005 2 2 2 0 0 0-2.005-2z" transform="translate(-1101.284 -460.448)" style="fill:#f51355;stroke:#fff;stroke-miterlimit:10;stroke-width:.5px"/>
            </g>
            <g data-name="Group 8823">
                <path data-name="Path 4318" d="M1223.895 498.55a2 2 0 1 0 2 2 2.005 2.005 0 0 0-2-2z" transform="translate(-1096.53 -474.107)" style="fill:#f51355;stroke:#fff;stroke-miterlimit:10;stroke-width:.5px"/>
            </g>
            <g data-name="Group 8824">
                <path data-name="Path 4319" d="M1216.651 546.034a2 2 0 1 0 2.005 2 2.006 2.006 0 0 0-2.005-2z" transform="translate(-1099.443 -455.01)" style="fill:#f51355;stroke:#fff;stroke-miterlimit:10;stroke-width:.5px"/>
            </g>
            <g data-name="Group 8825">
                <path data-name="Path 4320" d="M1193.473 499.511a2.528 2.528 0 1 0-2.528-2.528 2.533 2.533 0 0 0 2.528 2.528z" transform="translate(-1108.976 -475.754)" style="fill:#f51355;stroke:#fff;stroke-miterlimit:10;stroke-width:.5px"/>
            </g>
            <g data-name="Group 8826">
                <path data-name="Path 4321" d="M1158.135 488.155a2.528 2.528 0 1 0-2.528-2.528 2.533 2.533 0 0 0 2.528 2.528z" transform="translate(-1123.188 -480.321)" style="fill:#f51355;stroke:#fff;stroke-miterlimit:10;stroke-width:.5px"/>
            </g>
        </g>
    </g>
</svg>
