<svg xmlns="http://www.w3.org/2000/svg" width="118.6" height="167.312" viewBox="0 0 118.6 167.312">
    <defs>
        <clipPath id="jh5fwvyjga">
            <path data-name="Rectangle 5019" style="fill:none" d="M0 0h118.6v167.312H0z"/>
        </clipPath>
    </defs>
    <g data-name="Group 29645">
        <g data-name="Group 29644" style="clip-path:url(#jh5fwvyjga)">
            <path data-name="Path 15093" d="M111.47 153.142V11.595a8.341 8.341 0 0 0-8.493-8.495h-90.59a8.341 8.341 0 0 0-8.493 8.493v141.549a8.341 8.341 0 0 0 8.493 8.493h90.59a8.341 8.341 0 0 0 8.493-8.493" transform="translate(7.13 5.678)" style="fill:#e0c3dd"/>
            <path data-name="Path 15094" d="M2.021 149.868V4.439a2.712 2.712 0 0 1 2.831-2.907h90.59a2.712 2.712 0 0 1 2.831 2.907v145.429a2.712 2.712 0 0 1-2.831 2.907H4.852a2.712 2.712 0 0 1-2.831-2.907" transform="translate(3.7 2.804)" style="fill:#fff"/>
            <path data-name="Path 15095" d="M107.576 150.04V8.493A8.341 8.341 0 0 0 99.083 0H8.493A8.341 8.341 0 0 0 0 8.493V150.04a8.341 8.341 0 0 0 8.493 8.493h90.59a8.341 8.341 0 0 0 8.493-8.493m-101.914 0V8.493a2.675 2.675 0 0 1 2.831-2.831h90.59a2.675 2.675 0 0 1 2.831 2.831V150.04a2.675 2.675 0 0 1-2.831 2.831H8.493a2.675 2.675 0 0 1-2.831-2.831" transform="translate(0 -.001)" style="fill:#641856"/>
            <path data-name="Path 15096" d="m63.382 28.491-16.136-2.548-7.077-15.287a2.809 2.809 0 0 0-3.68-1.415 3.411 3.411 0 0 0-1.415 1.415l-7.645 15.287-16.136 2.548A2.8 2.8 0 0 0 9.028 31.6a1.557 1.557 0 0 0 .849 1.415l11.607 12.178-2.831 16.986a2.811 2.811 0 0 0 2.547 3.114 3.591 3.591 0 0 0 1.7-.283l14.438-7.644 14.438 7.927a2.121 2.121 0 0 0 1.415.283 2.675 2.675 0 0 0 2.831-2.831v-.566l-2.831-16.986 11.89-12.173a2.737 2.737 0 0 0 0-3.963 11.133 11.133 0 0 0-1.7-.566M48.1 42.362a3.46 3.46 0 0 0-.849 2.548l1.982 12.739-10.48-6.228a2.571 2.571 0 0 0-2.831 0l-10.757 5.945 1.982-12.739a2.421 2.421 0 0 0-.849-2.548L17.521 33.3l12.173-1.982a4.4 4.4 0 0 0 2.265-1.7L37.338 18.3l5.379 11.324a2.936 2.936 0 0 0 2.265 1.7L57.154 33.3z" transform="translate(16.45 16.52)" style="fill:#641856"/>
            <path data-name="Path 15097" d="M58.126 37h-45.3a2.831 2.831 0 1 0 0 5.662h45.3a2.831 2.831 0 1 0 0-5.662" transform="translate(18.309 67.744)" style="fill:#641856"/>
            <path data-name="Path 15098" d="M58.126 41h-45.3a2.831 2.831 0 1 0 0 5.662h45.3a2.831 2.831 0 1 0 0-5.662" transform="translate(18.309 75.067)" style="fill:#641856"/>
            <path data-name="Path 15099" d="M58.126 45h-45.3a2.831 2.831 0 1 0 0 5.662h45.3a2.831 2.831 0 1 0 0-5.662" transform="translate(18.309 82.391)" style="fill:#641856"/>
            <path data-name="Path 15100" d="M107.6 150.572V9.025A8.341 8.341 0 0 0 99.1.532H8.514A8.341 8.341 0 0 0 .021 9.025v141.547a8.341 8.341 0 0 0 8.493 8.493H99.1a8.341 8.341 0 0 0 8.493-8.493m-101.914 0V9.025a2.675 2.675 0 0 1 2.835-2.831H99.1a2.675 2.675 0 0 1 2.831 2.831v141.547A2.675 2.675 0 0 1 99.1 153.4H8.514a2.675 2.675 0 0 1-2.831-2.831" transform="translate(.038 .973)" style="fill:#641856"/>
        </g>
    </g>
</svg>
