<svg xmlns="http://www.w3.org/2000/svg" width="113.48" height="114.126" viewBox="0 0 113.48 114.126">
    <defs>
        <style>
            .cls-3,.cls-4{fill:#641856}.cls-3{stroke:#641856;stroke-miterlimit:10;stroke-width:.5px}
        </style>
    </defs>
    <g id="Group_20954" transform="translate(-902 -137)">
        <g id="Group_20953" transform="translate(-130.354 -505.409)">
            <path id="Path_12386" fill="#d7c4d4" d="M1131.628 717.912h-5.676v-39.726a4.022 4.022 0 0 0-4.017-4.018h-1.635v-1.451a4.022 4.022 0 0 0-4.018-4.018h-37.852c-.026 0-.048.013-.074.015a1.259 1.259 0 0 0-.384.077.661.661 0 0 0-.063.023 1.258 1.258 0 0 0-.405.261l-14.429 14.4a1.226 1.226 0 0 0-.378.911v52.658a4.023 4.023 0 0 0 4.018 4.018h1.633v1.451a4.022 4.022 0 0 0 4.017 4.018h29.08v1.559a8.451 8.451 0 0 0 8.442 8.441h21.741a8.451 8.451 0 0 0 8.442-8.441v-21.736a8.451 8.451 0 0 0-8.442-8.442z"/>
            <path id="Path_12387" fill="#fff" d="M1127.284 713.911h-5.676v-39.725a4.022 4.022 0 0 0-4.018-4.018h-1.631v-1.452a4.023 4.023 0 0 0-4.018-4.018h-37.855c-.026 0-.048.014-.074.015a1.26 1.26 0 0 0-.384.078c-.021.008-.043.013-.063.022a1.277 1.277 0 0 0-.4.261l-14.429 14.406a1.22 1.22 0 0 0-.378.911v52.658a4.023 4.023 0 0 0 4.018 4.018H1064v1.451a4.022 4.022 0 0 0 4.016 4.018h29.084v1.558a8.451 8.451 0 0 0 8.442 8.442h21.741a8.451 8.451 0 0 0 8.441-8.442v-21.741a8.451 8.451 0 0 0-8.44-8.442z"/>
            <g id="Group_20952">
                <path id="Path_12388" d="M1127.284 713.911h-11.325v-41.17h1.631a1.446 1.446 0 0 1 1.445 1.445V709.2a1.286 1.286 0 1 0 2.573 0v-35.01a4.022 4.022 0 0 0-4.018-4.018h-1.631v-1.452a4.023 4.023 0 0 0-4.018-4.018h-31.855a1.287 1.287 0 0 0 0 2.574h31.855a1.446 1.446 0 0 1 1.445 1.444v45.2h-7.843a8.451 8.451 0 0 0-8.442 8.442v12.14h-34.73a1.445 1.445 0 0 1-1.444-1.444v-51.381h10.412a4.022 4.022 0 0 0 4.017-4.017v-11.675a1.287 1.287 0 0 0-2.2-.911l-14.429 14.406a1.22 1.22 0 0 0-.378.911v52.658a4.023 4.023 0 0 0 4.018 4.018H1064v1.451a4.022 4.022 0 0 0 4.016 4.018h29.084v1.558a8.451 8.451 0 0 0 8.442 8.442h21.741a8.451 8.451 0 0 0 8.441-8.442v-21.741a8.451 8.451 0 0 0-8.441-8.442zm-54.5-44.823v8.572a1.446 1.446 0 0 1-1.444 1.444h-8.589zm-4.763 70.875a1.445 1.445 0 0 1-1.442-1.445v-1.451h30.521v2.9zm65.132 4.131a5.875 5.875 0 0 1-5.868 5.869h-21.741a5.876 5.876 0 0 1-5.869-5.869v-21.741a5.875 5.875 0 0 1 5.869-5.868h21.741a5.874 5.874 0 0 1 5.868 5.868z" class="cls-3"/>
                <path id="Path_12389" d="M1119.97 721.724a4.622 4.622 0 0 0-7.114 0l-6.447 8.033c-2.305 2.612-.105 7.184 3.381 7.046h1.2v6.706a2.924 2.924 0 0 0 2.921 2.921h5a2.924 2.924 0 0 0 2.92-2.921V736.8h1.2c3.449.194 5.673-4.4 3.381-7.046zm4.639 11.508a1.8 1.8 0 0 1-1.556 1h-2.5a1.287 1.287 0 0 0-1.287 1.286v7.994a.348.348 0 0 1-.347.347h-5a.348.348 0 0 1-.348-.347v-7.994a1.286 1.286 0 0 0-1.286-1.286h-2.5a1.754 1.754 0 0 1-1.367-2.85l6.456-8.046a2.04 2.04 0 0 1 3.1 0l6.457 8.046a1.813 1.813 0 0 1 .189 1.852z" class="cls-3"/>
                <path id="Path_12390" d="M1095.324 680.494a4.1 4.1 0 0 0 0-8.2h-12.083a4.1 4.1 0 0 0 0 8.2zm-13.608-4.1a1.527 1.527 0 0 1 1.525-1.525h12.083a1.527 1.527 0 0 1 0 3.055h-12.083a1.527 1.527 0 0 1-1.525-1.53z" class="cls-3"/>
                <path id="Path_12391" d="M1068.069 690.1a1.287 1.287 0 0 0 1.287 1.287h35.656a1.287 1.287 0 0 0 0-2.574h-35.656a1.287 1.287 0 0 0-1.287 1.287z" class="cls-3"/>
                <path id="Path_12392" d="M1105.012 696.445h-35.656a1.286 1.286 0 1 0 0 2.573h35.656a1.286 1.286 0 0 0 0-2.573z" class="cls-3"/>
                <path id="Path_12393" d="M1105.012 704.075h-6.659a1.286 1.286 0 0 0 0 2.573h6.659a1.286 1.286 0 0 0 0-2.573z" class="cls-3"/>
                <path id="Path_12394" d="M1093.6 705.361a1.286 1.286 0 0 0-1.286-1.286h-22.958a1.286 1.286 0 1 0 0 2.573h22.958a1.286 1.286 0 0 0 1.286-1.287z" class="cls-3"/>
                <path id="Path_12395" d="M1084.9 711.7h-15.548a1.287 1.287 0 0 0 0 2.574h15.548a1.287 1.287 0 0 0 0-2.574z" class="cls-3"/>
                <path id="Path_12396" d="M1084.9 719.334h-15.548a1.286 1.286 0 1 0 0 2.573h15.548a1.286 1.286 0 0 0 0-2.573z" class="cls-3"/>
            </g>
        </g>
        <g id="Group_5277" transform="translate(-196.888 -978.711)">
            <path id="Path_2854" d="M1100.113 1145.737h1.228v1.228a1.156 1.156 0 0 0 2.307 0v-1.228h1.228a1.156 1.156 0 0 0 .138-2.307 1.042 1.042 0 0 0-.138 0h-1.228v-1.23a1.156 1.156 0 0 0-2.307-.138 1.085 1.085 0 0 0 0 .138v1.23h-1.228a1.156 1.156 0 0 0-.138 2.308 1.085 1.085 0 0 0 .138 0z" class="cls-4"/>
            <path id="Path_2855" d="M1210.065 1156.166a1.156 1.156 0 1 0-2.308-.136 1.053 1.053 0 0 0 0 .136v1.23h-1.228a1.156 1.156 0 0 0 0 2.307h1.228v1.229a1.156 1.156 0 1 0 2.308.138v-1.37h1.223a1.156 1.156 0 0 0 0-2.307h-1.228z" class="cls-4"/>
            <path id="Path_2856" d="M1150.593 1120.324h1.228v1.229a1.156 1.156 0 0 0 2.307 0v-1.228h1.228a1.156 1.156 0 1 0 .2-2.3h-.063a1.085 1.085 0 0 0-.138 0h-1.228v-1.226a1.156 1.156 0 0 0-2.307 0v1.227h-1.228a1.156 1.156 0 1 0-.138 2.308 1.085 1.085 0 0 0 .138 0z" class="cls-4"/>
        </g>
    </g>
</svg>
