<svg xmlns="http://www.w3.org/2000/svg" width="179.916" height="174.923" viewBox="0 0 179.916 174.923">
    <defs>
        <clipPath id="65mwqe5msa">
            <path data-name="Rectangle 4999" style="fill:none" d="M0 0h144.69v136.912H0z"/>
        </clipPath>
    </defs>
    <g data-name="Group 29335">
        <g data-name="Group 29334" transform="rotate(-162 82.657 76.564)" style="clip-path:url(#65mwqe5msa)">
            <path data-name="Path 15056" d="M10.913 133.301c-9.278-23.545-7.014-54.987 18.436-67.536 11.823-5.851 27.333-4.489 37.172 4.649 7.635 7.094 8.016 19.338-3.006 22.824a25.172 25.172 0 0 1-22.584-4.749c-23.866-19.172-2.885-50.653 17.855-61.254 24.047-12.324 53.043-11.182 76.789 1 3.447 1.763 6.493-3.427 3.046-5.19-25.75-13.206-56.891-14.368-82.881-1-21.181 10.861-38.695 35.248-27.774 59.436a31.7 31.7 0 0 0 26.291 18.536c9.138.761 20.8-2.805 24.047-12.384 3.787-10.941-5.891-21.7-14.789-26.612a40.073 40.073 0 0 0-32.623-2.445C-.309 69.918-5.74 107.391 5.121 134.904c1.4 3.547 7.214 2 5.791-1.6"/>
            <path data-name="Path 15057" d="M117.18 5.032a269.315 269.315 0 0 1 22.384 22.2l.621-4.709a211.3 211.3 0 0 0-31.381 19.862c-3.026 2.325 0 7.555 3.046 5.19a209.991 209.991 0 0 1 31.361-19.859 3.047 3.047 0 0 0 1.044-4.18 3.129 3.129 0 0 0-.423-.549 269.273 269.273 0 0 0-22.3-22.2c-2.889-2.548-7.181 1.7-4.252 4.245z"/>
        </g>
    </g>
</svg>
