<svg xmlns="http://www.w3.org/2000/svg" width="804" height="666" viewBox="0 0 804 666">
    <defs>
        <clipPath id="r9zri36s2a">
            <path data-name="Rectangle 5012" transform="translate(907 238)" style="fill:#fff;stroke:#707070" d="M0 0h804v666H0z"/>
        </clipPath>
    </defs>
    <g data-name="Mask Group 29248" transform="translate(-907 -238)" style="clip-path:url(#r9zri36s2a)">
        <g data-name="Group 29589" style="opacity:.66;isolation:isolate">
            <path data-name="Path 15050" d="M487.925 19.936h108.211a13.161 13.161 0 0 1 9.828 4.166 12.912 12.912 0 0 1 4.166 10.041v591.052a13.2 13.2 0 0 1-4.166 10.041 13.579 13.579 0 0 1-9.828 4.166H487.925a14.005 14.005 0 0 1-9.935-4.166 13.664 13.664 0 0 1-4.166-10.041V273.854q0-4.807-2.243-4.807c-1.6 0-3.2 1.175-4.7 3.525l-102.23 185.659c-3.953 6.3-7.584 9.4-10.682 9.4s-6.623-3.1-10.682-9.4L240.95 272.573c-1.5-2.35-3.1-3.525-4.7-3.525s-2.35 1.6-2.35 4.807v351.34a14 14 0 0 1-13.78 14.205H111.908a13.994 13.994 0 0 1-13.994-13.994V34.144a14 14 0 0 1 13.78-14.207h107.892a19.553 19.553 0 0 1 17.625 9.507L351.3 230.271c2.243 3.2 4.593 3.2 6.943 0L469.872 29.444a19.563 19.563 0 0 1 18.053-9.507" transform="translate(939.662 550.233)" style="fill:#ffe5ec"/>
            <path data-name="Path 15051" d="M98.093 111.228V24.167c0-15.489 8.76-23.287 26.171-23.287h87.808c17.412 0 26.172 7.8 26.172 23.287v87.061a21.356 21.356 0 0 1-24.035 24.142h-92.081a21.366 21.366 0 0 1-24.046-18.288 21.064 21.064 0 0 1 .011-5.854" transform="translate(939.372 366.12)" style="fill:#ffe5ec"/>
            <path data-name="Path 15052" d="M132.933 111.228V24.167C132.933 8.678 141.692.88 159.1.88h87.808c17.412 0 26.172 7.8 26.172 23.287v87.061a21.356 21.356 0 0 1-24.03 24.142h-92.082a21.366 21.366 0 0 1-24.046-18.288 21.1 21.1 0 0 1 .01-5.854" transform="translate(1276.704 366.12)" style="fill:#ffe5ec"/>
        </g>
    </g>
</svg>
