<svg xmlns="http://www.w3.org/2000/svg" width="28.764" height="28.764" viewBox="0 0 28.764 28.764">
    <path data-name="Path 15072" d="m25.857 20.338.965 3.046a2.515 2.515 0 0 1-3.187 3.161l-2.833-.92a1.014 1.014 0 0 0-.822.071 13.632 13.632 0 1 1 5.93-6.141 1.039 1.039 0 0 0-.107.385 1.058 1.058 0 0 0 .053.4zm-.431 3.487-.965-3.046a2.456 2.456 0 0 1 .134-1.859 12.084 12.084 0 0 0 .9-2.569 12.147 12.147 0 1 0-8.94 9.1A12.073 12.073 0 0 0 19.3 24.4a2.453 2.453 0 0 1 1.956-.169l2.833.92a1.052 1.052 0 0 0 1.336-1.33z" transform="translate(.75 .75)" style="fill:#050505;stroke:#050505;stroke-width:1.5px"/>
</svg>
